<?xml version="1.0" encoding="utf-8"?>
<!-- Generator: Adobe Illustrator 15.1.0, SVG Export Plug-In . SVG Version: 6.00 Build 0)  -->
<!DOCTYPE svg PUBLIC "-//W3C//DTD SVG 1.1//EN" "http://www.w3.org/Graphics/SVG/1.1/DTD/svg11.dtd">
<svg version="1.1" id="Livello_1" xmlns="http://www.w3.org/2000/svg" xmlns:xlink="http://www.w3.org/1999/xlink" x="0px" y="0px"
	 width="150.667px" height="45px" viewBox="-37.083 -23.771 150.667 45" enable-background="new -37.083 -23.771 150.667 45"
	 xml:space="preserve">
<g>
	<g>
		<defs>
			<rect id="SVGID_1_" x="-82.49" y="-31.745" width="226.772" height="90.645"/>
		</defs>
		<clipPath id="SVGID_2_">
			<use xlink:href="#SVGID_1_"  overflow="visible"/>
		</clipPath>
	</g>
	<g>
		<defs>
			<rect id="SVGID_3_" x="-82.49" y="-31.745" width="226.772" height="90.645"/>
		</defs>
		<clipPath id="SVGID_4_">
			<use xlink:href="#SVGID_3_"  overflow="visible"/>
		</clipPath>
	</g>
	<g>
		<defs>
			<rect id="SVGID_5_" x="-82.49" y="-31.745" width="226.772" height="90.645"/>
		</defs>
		<clipPath id="SVGID_6_">
			<use xlink:href="#SVGID_5_"  overflow="visible"/>
		</clipPath>
	</g>
	<g>
		<defs>
			<rect id="SVGID_7_" x="-82.49" y="-31.745" width="226.772" height="90.645"/>
		</defs>
		<clipPath id="SVGID_8_">
			<use xlink:href="#SVGID_7_"  overflow="visible"/>
		</clipPath>
	</g>
	<g>
		<defs>
			<rect id="SVGID_9_" x="-82.49" y="-31.745" width="226.772" height="90.645"/>
		</defs>
		<clipPath id="SVGID_10_">
			<use xlink:href="#SVGID_9_"  overflow="visible"/>
		</clipPath>
	</g>
	<g>
		<defs>
			<rect id="SVGID_11_" x="-82.49" y="-31.745" width="226.772" height="90.645"/>
		</defs>
		<clipPath id="SVGID_12_">
			<use xlink:href="#SVGID_11_"  overflow="visible"/>
		</clipPath>
	</g>
	<g>
		<defs>
			<rect id="SVGID_13_" x="-82.49" y="-31.745" width="226.772" height="90.645"/>
		</defs>
		<clipPath id="SVGID_14_">
			<use xlink:href="#SVGID_13_"  overflow="visible"/>
		</clipPath>
	</g>
	<g>
		<defs>
			<rect id="SVGID_15_" x="-82.49" y="-31.745" width="226.772" height="90.645"/>
		</defs>
		<clipPath id="SVGID_16_">
			<use xlink:href="#SVGID_15_"  overflow="visible"/>
		</clipPath>
	</g>
	<g>
		<defs>
			<rect id="SVGID_17_" x="-82.49" y="-31.745" width="226.772" height="90.645"/>
		</defs>
		<clipPath id="SVGID_18_">
			<use xlink:href="#SVGID_17_"  overflow="visible"/>
		</clipPath>
	</g>
	<g>
		<defs>
			<rect id="SVGID_19_" x="-82.49" y="-31.745" width="226.772" height="90.645"/>
		</defs>
		<clipPath id="SVGID_20_">
			<use xlink:href="#SVGID_19_"  overflow="visible"/>
		</clipPath>
	</g>
	<g>
		<defs>
			<rect id="SVGID_21_" x="-82.49" y="-31.745" width="226.772" height="90.645"/>
		</defs>
		<clipPath id="SVGID_22_">
			<use xlink:href="#SVGID_21_"  overflow="visible"/>
		</clipPath>
	</g>
	<g>
		<defs>
			<rect id="SVGID_23_" x="-82.49" y="-31.745" width="226.772" height="90.645"/>
		</defs>
		<clipPath id="SVGID_24_">
			<use xlink:href="#SVGID_23_"  overflow="visible"/>
		</clipPath>
		<path clip-path="url(#SVGID_24_)" fill="#48484A" d="M52.845,16.297c-0.266,0.289-0.525,0.574-0.791,0.863
			c-0.475-0.18-0.688,0.492-1.166,0.348c-0.121-0.035-0.297,0.191-0.459,0.211c-0.689,0.09-1.275-0.082-1.813-0.59
			c-0.236-0.223-0.443-0.539-0.85-0.633c-0.383-0.09-0.525-0.523-0.697-0.867c-0.096-0.195-0.227-0.371-0.336-0.563
			c-0.158-0.273-0.326-0.547-0.455-0.832c-0.027-0.059,0.063-0.211,0.137-0.27c0.076-0.063,0.201-0.059,0.352-0.125
			c-0.422-0.078-0.57-0.332-0.563-0.717c0.006-0.083-0.143-0.169-0.219-0.254c0.225-0.375,0.125-1-0.236-1.433
			c-0.109,0.057-0.221,0.115-0.359,0.188c0.209,0.469-0.213,0.746-0.373,1.105c-0.172,0.406-0.408,0.796-0.672,1.15
			c-0.285,0.391-0.635,0.727-0.953,1.09c-0.195,0.223-0.416,0.398-0.51,0.727c-0.068,0.223-0.412,0.355-0.625,0.535
			c-0.115,0.094-0.213,0.207-0.32,0.313c-0.023,0.023-0.033,0.07-0.061,0.082c-0.516,0.215-0.879,0.73-1.541,0.672
			c-0.25-0.023-0.525,0.164-0.775,0.277c-0.203,0.086-0.496,0.063-0.531,0.379c0,0.012-0.016,0.027-0.027,0.027
			c-0.129,0.031-0.322,0.016-0.375,0.098c-0.072,0.109-0.035,0.289-0.057,0.438c-0.01,0.059-0.057,0.102-0.076,0.141
			c-0.421-0.02-0.824-0.016-1.223-0.066c-0.164-0.023-0.334-0.152-0.461-0.273c-0.42-0.418-0.797-0.867-1.07-1.406
			c-0.17-0.336-0.436-0.625-0.656-0.938c-0.014-0.02-0.023-0.043-0.026-0.063c-0.055-0.602-0.263-0.941-0.722-1.379
			c-0.263-0.246-0.453-0.563-0.688-0.84c-0.208-0.252-0.427-0.498-0.656-0.734c-0.322-0.342-0.677-0.656-0.989-1.012
			c-0.273-0.316-0.511-0.667-0.756-1.008c-0.52-0.73-1.07-1.443-1.539-2.206c-0.35-0.56-0.592-1.184-0.867-1.785
			c-0.203-0.442-0.344-0.916-0.59-1.333c-0.316-0.539-0.531-1.168-1.133-1.509c-0.154-0.088-0.27-0.252-0.375-0.4
			c-0.031-0.045,0.027-0.154,0.061-0.314c-0.125,0.068-0.221,0.094-0.279,0.154c-0.527,0.566-1.074,1.117-1.563,1.721
			c-0.328,0.408-0.561,0.893-0.854,1.333c-0.137,0.203-0.328,0.368-0.473,0.567c-0.248,0.348-0.475,0.71-0.721,1.062
			c-0.133,0.195-0.279,0.381-0.418,0.574c-0.197,0.277-0.389,0.563-0.59,0.836c-0.311,0.424-0.623,0.848-0.945,1.265
			c-0.25,0.321-0.531,0.613-0.467,1.079c0.016,0.121-0.094,0.262-0.146,0.393c-0.098,0.224-0.201,0.445-0.293,0.669
			c-0.172,0.417,0.053,0.768,0.168,1.143c0.137,0.441,0.227,0.902,0.338,1.348c0.014,0.059,0.025,0.121,0.064,0.164
			c0.301,0.336,0.178,0.633-0.088,0.914c-0.063,0.063-0.139,0.117-0.252,0.211c0.176,0.031,0.283,0.047,0.393,0.055
			c0,0.023,0,0.039,0,0.059c-0.365,0.059-0.729,0.121-1.094,0.172c-0.248,0.043-0.521,0.152-0.746,0.09
			c-0.613-0.172-1.1-0.559-1.539-1.023c-0.268-0.273-0.594-0.5-0.922-0.707c-0.592-0.371-1.109-0.793-1.275-1.512
			c-0.051-0.219-0.148-0.405-0.229-0.605c-0.232-0.58-0.445-1.195-0.209-1.844c0.027-0.074,0.035-0.17,0.012-0.245
			c-0.201-0.667,0.113-1.156,0.578-1.617c-0.064-0.059-0.115-0.106-0.182-0.165c0.365-0.324-0.184-0.438-0.162-0.705
			c0.01-0.151-0.051-0.307-0.023-0.469C14.654,8.087,14.734,7.9,14.89,7.797c-0.037-0.374-0.068-0.686-0.098-0.998
			c0.031-0.008,0.063-0.02,0.096-0.029c-0.094-0.057-0.184-0.115-0.334-0.209c0.436-0.086,0.422-0.318,0.301-0.613
			c-0.039-0.098,0.016-0.231-0.002-0.346c-0.025-0.176-0.072-0.346-0.115-0.52c-0.01-0.057-0.039-0.109-0.039-0.163
			c0.023-0.486,0.125-0.96,0.006-1.457c-0.07-0.293,0.01-0.618,0.016-0.934c0-0.061-0.033-0.125,0.029-0.088
			c-0.207,0.152-0.445,0.277-0.611,0.465c-0.148,0.168-0.216,0.402-0.274,0.629c-0.453,0.723-0.906,1.445-1.405,2.236
			c-0.295,0.023-0.244,0.375-0.336,0.639c-0.079,0.24-0.184,0.471-0.279,0.709c-0.062,0.154-0.125,0.312-0.189,0.464
			c-0.021,0.053-0.048,0.127-0.088,0.143c-0.433,0.16-0.397,0.531-0.428,0.885c-0.005,0.084-0.028,0.195-0.09,0.242
			c-0.445,0.333-0.742,0.766-1.01,1.254c-0.195,0.355-0.447,0.67-0.519,1.086c-0.016,0.085-0.155,0.144-0.219,0.227
			c-0.352,0.461-0.773,0.889-1.031,1.398c-0.285,0.563-0.821,0.834-1.235,1.229c-0.327,0.316-0.823,0.168-1.189-0.078
			c-0.43-0.285-0.701-0.713-0.962-1.159c-0.216-0.363-0.542-0.705-1.011-0.794c-0.345-0.068-0.574-0.246-0.691-0.582
			c-0.037-0.109-0.141-0.189-0.188-0.293c-0.075-0.166-0.277-0.246-0.208-0.518c0.066-0.271-0.667-0.686-0.947-0.592
			c-0.109,0.037-0.239-0.01-0.36,0.008c-0.13,0.023-0.316,0.037-0.375,0.123c-0.277,0.417-0.669,0.707-1.059,0.989
			c-0.333,0.242-0.712,0.43-1.07,0.636c-0.051,0.028-0.112,0.049-0.168,0.047c-0.52-0.011-0.93,0.272-1.375,0.469
			c-0.208,0.09-0.491,0-0.705,0.08c-0.397,0.154-0.712-0.109-1.061-0.158c-0.102-0.012-0.24-0.059-0.28-0.133
			c-0.238-0.439-0.699-0.732-0.773-1.29c-0.032-0.244-0.206-0.48-0.36-0.689c-0.248-0.336-0.339-0.658-0.187-1.077
			c0.173-0.472,0.27-0.974,0.4-1.484C-5.87,7.428-6.078,7.662-6.299,7.841c-0.173,0.141-0.319,0.325-0.509,0.434
			c-0.347,0.199-0.611,0.398-0.535,0.867c0.018,0.109-0.117,0.301-0.232,0.363c-0.432,0.233-0.885,0.426-1.331,0.635
			c-0.531,0.248-1.07,0.486-1.593,0.744c-0.44,0.219-0.864,0.467-1.298,0.694c-0.102,0.053-1.913,0.81-2.065,0.861
			c-0.008-0.805-0.044-1.568,0-2.326c0.008-0.154,1.992-1.072,2.188-1.163c0.285-0.13,0.608-0.189,0.912-0.281
			c0.043-0.012,0.099-0.036,0.117-0.071c0.206-0.384,0.625-0.365,0.955-0.515c0.376-0.172,0.747-0.355,1.118-0.531
			c0.179-0.084,0.347-0.207,0.533-0.25c0.313-0.071,0.6-0.154,0.738-0.485c0.027-0.062,0.124-0.099,0.193-0.133
			c0.374-0.203,0.743-0.404,1.12-0.601c0.369-0.192,0.738-0.375,1.109-0.563c0.387-0.203,0.748-0.414,1.002-0.803
			c0.227-0.35,0.56-0.631,0.843-0.947c0.235-0.264,0.506-0.512,0.688-0.809c0.395-0.652,1.082-0.755,1.695-1.017
			c0.252-0.109,0.456-0.299,0.742-0.131c0.085,0.054,0.164,0.113,0.24,0.176C0.387,2.033,0.438,2.135,0.48,2.13
			c0.536-0.07,0.861,0.303,1.264,0.551C1.95,2.81,2.197,2.818,2.4,3.044C2.723,3.412,2.912,3.797,2.731,4.26
			C2.667,4.428,2.492,4.615,2.326,4.67C1.84,4.833,1.336,4.935,0.907,5.041C0.705,5.158,0.563,5.275,0.403,5.326
			C0.091,5.423-0.405,5.591-0.589,5.822c-0.39,0.48-0.779,0.42-1.136,0.921c-0.256,0.362-0.448,0.77-0.674,1.151
			c-0.145,0.244-0.264,0.518-0.462,0.705C-3.203,8.916-2.776,9.9-2.778,10.26c-0.002,0.199,0.461,0.273,0.712,0.089
			C-1.699,10.08-1.354,9.779-1,9.494C-0.882,9.398-0.77,9.236-0.643,9.22c0.451-0.056,0.451-0.382,0.428-0.683
			c-0.046-0.524,0.279-0.639,0.259-1.168C0.035,7.193,0.208,6.978,0.352,6.828C0.55,6.626,0.321,6.021,0.574,5.906
			c0.27-0.124,0.579-0.18,0.875-0.211C1.96,5.642,2.48,5.629,2.996,5.602c0.13-0.008,0.277-0.045,0.384,0
			C3.685,5.736,3.98,5.789,4.296,5.65c0.045-0.019,0.152,0.045,0.197,0.098c0.128,0.141,0.237,0.296,0.37,0.467
			C4.537,6.428,4.634,6.591,5.085,6.732C4.915,6.833,4.835,6.879,4.758,6.93C4.376,7.178,4.246,7.744,4.449,8.13
			c0.119,0.223,0.186,0.477,0.298,0.706c0.086,0.177,0.211,0.333,0.302,0.51C5.15,9.537,5.23,9.74,5.318,9.938
			c0.144,0.333,0.405,0.623,0.314,1.041c-0.019,0.079,0.096,0.223,0.188,0.285c0.303,0.208,0.268,0.575,0.474,0.864
			c0.046-0.032,0.112-0.067,0.163-0.119c0.48-0.479,0.936-0.982,1.439-1.438c0.461-0.42,0.819-0.896,1.046-1.473
			c0.445-1.133,1.125-2.094,2.106-2.824c0.367-0.275,0.565-0.645,0.726-1.074c0.187-0.499,0.474-0.957,0.733-1.428
			c0.379-0.688,0.783-1.361,1.152-2.055c0.111-0.211,0.173-0.466,0.181-0.703c0.021-0.555,0.048-1.043,0.536-1.468
			c0.316-0.277,0.436-0.781,0.635-1.186c0.018-0.043,0.002-0.117-0.02-0.166c-0.148-0.313-0.152-0.309,0.139-0.551
			c-0.09-0.251-0.178-0.507-0.299-0.834c0.121-0.224,0.277-0.509,0.158-0.947c-0.123-0.44,0.082-0.969-0.033-1.412
			c-0.109-0.42,0.281-0.657,0.199-1.079c-0.063-0.31-0.01-0.611-0.26-0.763c0.201-0.599,0.584-1.104,0.402-1.762
			c-0.029-0.116,0.018-0.249,0.025-0.374c0.012-0.181,0.016-0.366,0.033-0.547c0.018-0.145,0.049-0.285,0.07-0.43
			c0.016-0.087,0.039-0.179,0.041-0.267c0.012-0.277,0-0.551,0.018-0.823c0.023-0.448,0.053-0.897,0.09-1.345
			c0.01-0.127,0.08-0.255,0.086-0.385c0.006-0.142-0.029-0.287-0.051-0.433c0.084-0.091,0.189-0.2,0.293-0.313
			c-0.111-0.094-0.225-0.186-0.373-0.306c0.031-0.216,0.07-0.486,0.104-0.707c-0.057-0.173-0.104-0.32-0.176-0.539
			c-0.018-0.011-0.123-0.062-0.227-0.112c-0.307-0.149-0.404-0.456-0.432-0.797c-0.016-0.221-0.217-0.438-0.35-0.646
			c-0.045-0.072-0.146-0.109-0.227-0.166c0.262-0.285,0.709-0.4,0.672-0.896c-0.006-0.077,0.117-0.165,0.178-0.247
			c0.047-0.059,0.137-0.132,0.123-0.173c-0.131-0.488,0.291-0.617,0.545-0.854c0.105-0.102,0.221-0.194,0.344-0.277
			c0.061-0.043,0.156-0.082,0.219-0.064c0.342,0.091,0.344-0.107,0.328-0.349c-0.006-0.067,0.035-0.177,0.082-0.198
			c0.072-0.029,0.168-0.002,0.256,0.01c0.146,0.025,0.291,0.056,0.438,0.086c0.166,0.031,0.328,0.085,0.496,0.097
			c0.275,0.021,0.553,0.039,0.826,0.021c0.219-0.016,0.41-0.106,0.637,0.048c0.236,0.16,0.523,0.24,0.799,0.336
			c0.068,0.026,0.168-0.018,0.248-0.03c0.273,0.608,0.535,0.672,1.098,0.297c0.09-0.062,0.299-0.109,0.324-0.073
			c0.193,0.289,0.412,0.051,0.674,0.027c0.002,0.197,0.002,0.376,0.006,0.603c0.168,0.102,0.402,0.242,0.664,0.4
			c0.051-0.041,0.133-0.104,0.213-0.168c0.111,0.071,0.221,0.147,0.363,0.242c-0.086,0.035-0.154,0.059-0.197,0.078
			c0.027,0.151,0.059,0.306,0.098,0.501c0.275,0.037,0.48,0.187,0.313,0.578c1.27,0.027,2.291,0.435,2.926,1.473
			c-0.125,0.285-0.219,0.552-0.352,0.792c-0.25,0.427-0.527,0.792-1,1.013c-0.168,0.081-0.227,0.461-0.277,0.718
			c-0.047,0.227-0.092,0.387-0.301,0.555c-0.193,0.16-0.264,0.483-0.369,0.738c-0.127,0.307-0.229,0.621-0.342,0.934
			c-0.031,0.094-0.057,0.191-0.102,0.277c-0.055,0.109-0.131,0.206-0.24,0.374c0.035,0.158,0.092,0.42,0.158,0.725
			c-0.176,0.066-0.383,0.146-0.635,0.242c0.021-0.036-0.002-0.013,0,0c0.248,0.662-0.166,1.089-0.529,1.537
			c-0.023,0.026-0.082,0.048-0.076,0.064c0.08,0.438-0.252,0.728-0.369,1.094c-0.045,0.133,0.102,0.328,0.16,0.488
			c-0.324-0.051-0.445,0.112-0.492,0.606c-0.012,0.121-0.146,0.224-0.174,0.348c-0.029,0.148-0.002,0.309-0.002,0.472
			c-0.443,0.081-0.064,0.653-0.465,0.806c0.35,0.283,0.082,0.507-0.008,0.741c-0.07,0.178-0.195,0.352-0.207,0.534
			c-0.018,0.258-0.076,0.434-0.318,0.57c-0.117,0.066-0.16,0.266-0.234,0.405c0.031,0.013,0.064,0.029,0.096,0.043
			c0.063-0.1,0.123-0.198,0.18-0.283c0.109,0.152,0.199,0.277,0.258,0.355c-0.133,0.305-0.273,0.582-0.375,0.875
			c-0.033,0.094,0.039,0.221,0.055,0.333c0.02,0.105,0.07,0.227,0.031,0.308c-0.027,0.061-0.172,0.086-0.27,0.098
			c-0.111,0.01-0.229-0.013-0.359-0.023c-0.01,0.069-0.039,0.129-0.02,0.157c0.27,0.375,0.049,0.711-0.119,1.021
			c-0.199,0.373-0.166,0.725,0.209,1c-0.211,0.184-0.416,0.365-0.613,0.541c0.113,0.273,0.223,0.482,0.027,0.779
			c-0.141,0.208-0.1,0.539-0.143,0.822c-0.369,0.028-0.486,0.133-0.451,0.445c0.117,0.02,0.238,0.042,0.34,0.063
			c-0.277,0.445-0.539,0.867-0.803,1.285c-0.168,0.107-0.48-0.029-0.635,0.262c0.148,0.324,0.59-0.223,0.645,0.336
			c0.172-0.165,0.301-0.291,0.443-0.43c0,0.201,0.002,0.387,0.006,0.561c-0.217,0.24-0.445,0.496-0.736,0.822
			c0.236,0.028,0.389,0.051,0.586,0.077c-0.092,0.134-0.166,0.232-0.252,0.361c0.098,0.031,0.18,0.055,0.381,0.122
			c-0.145,0.088-0.229,0.141-0.311,0.191c0.012,0.273,0.551,0.486,0.82,0.334c0.277-0.156,0.504-0.346,0.705-0.616
			c0.377-0.509,0.834-0.957,1.248-1.438c0.363-0.416,0.723-0.83,1.064-1.263c0.117-0.152,0.154-0.369,0.254-0.537
			c0.064-0.106,0.164-0.213,0.273-0.262c0.385-0.168,0.523-0.537,0.736-0.844c0.064-0.094,0.113-0.201,0.18-0.293
			c0.338-0.488,0.906-0.773,1.168-1.336c0.076-0.168,0.279-0.275,0.406-0.425c0.32-0.371,0.619-0.76,0.945-1.127
			c0.24-0.275,0.5-0.531,0.754-0.795c0.189-0.195,0.277-0.512,0.66-0.484c0.07,0.004,0.164-0.232,0.242-0.363
			c0.035-0.056,0.039-0.16,0.086-0.179c0.711-0.313,0.959-1.071,1.5-1.543c0.207-0.181,0.438-0.344,0.648-0.522
			c0.32-0.272,0.643-0.539,0.947-0.827c0.211-0.2,0.364-0.478,0.599-0.643c0.578-0.405,1.188-0.762,1.781-1.148
			c0.167-0.107,0.359-0.216,0.464-0.374c0.255-0.384,0.685-0.4,1.044-0.517c0.497-0.166,1.112,0.24,1.231,0.896
			c0.011,0.045-0.01,0.095,0,0.141c0.058,0.231,0.344,0.448,0.061,0.707c-0.178,0.163-0.357,0.325-0.558,0.456
			c-0.472,0.307-0.953,0.587-1.425,0.888c-0.096,0.059-0.172,0.163-0.236,0.256c-0.311,0.458-0.758,0.65-1.279,0.813
			c-0.4,0.124-0.744,0.457-1.094,0.723c-0.224,0.176-0.403,0.406-0.611,0.605c-0.254,0.246-0.513,0.485-0.767,0.73
			c-0.156,0.149-0.277,0.355-0.457,0.454c-0.438,0.24-0.559,0.813-1.094,0.965c-0.182,0.054-0.289,0.371-0.424,0.563
			c0.15,0.355,0.342,0.736,0.475,1.137c0.068,0.21,0.002,0.469,0.074,0.68c0.273,0.785,0.582,1.558,0.875,2.336
			c0.119,0.316,0.229,0.637,0.371,0.945c0.055,0.122,0.18,0.215,0.207,0.242c0.098,0.34,0.141,0.627,0.262,0.879
			c0.235,0.512,0.556,0.988,0.755,1.507c0.295,0.778,0.767,1.434,1.285,2.069c0.419,0.513,0.805,1.053,1.263,1.531
			c0.354,0.373,0.781,0.68,1.195,0.988c0.065,0.055,0.237-0.041,0.45-0.088c0.547,0.377,1.146,0.857,1.813,1.213
			c0.464,0.258,1.021,0.375,1.568,0.125c0.031-0.016,0.078-0.039,0.094-0.027c0.51,0.316,0.791-0.117,1.094-0.367
			c0.344-0.281,0.648-0.609,0.941-0.943c0.332-0.381,0.625-0.791,0.938-1.191c0.021-0.027,0.027-0.075,0.053-0.09
			c0.5-0.306,0.646-0.888,1.023-1.298c0.547-0.6,1.064-1.227,1.568-1.87c0.197-0.253,0.273-0.598,0.455-0.863
			c0.342-0.492,0.736-0.945,1.076-1.435c0.277-0.4,0.508-0.838,0.762-1.256c0.225-0.367,0.484-0.72,0.672-1.107
			c0.199-0.416,0.328-0.869,0.506-1.299c0.125-0.305,0.287-0.592,0.404-0.895c0.137-0.363,0.289-0.728,0.361-1.109
			c0.094-0.519,0.15-1.035,0.625-1.376c0.063-0.045,0.1-0.131,0.162-0.211c0.457,0.029,0.932,0.016,1.391,0.104
			c0.469,0.089,0.922,0.273,1.416,0.428c0.021,0.303,0.26,0.416,0.572,0.506c0.225,0.064,0.422,0.242,0.625,0.379
			c0.105,0.072,0.191,0.179,0.301,0.248c0.268,0.168,0.313,0.384,0.197,0.664c-0.088,0.221-0.148,0.453-0.236,0.736
			c-0.086,0.075-0.25,0.198-0.398,0.336c-0.225,0.213-0.316,0.539-0.639,0.68c-0.15,0.064-0.252,0.264-0.104,0.457
			c0.125,0.168,0.141,0.28-0.125,0.288c-0.168,0.005-0.23,0.061-0.262,0.277c-0.057,0.369-0.236,0.717-0.346,1.023
			c0.07,0.142,0.125,0.246,0.174,0.35c-0.094-0.008-0.182-0.016-0.316-0.027c-0.324,0.242-0.324,0.242,0.219,0.734
			c-0.121,0.292-0.725-0.22-0.672,0.398c-0.047-0.082-0.09-0.166-0.164-0.31c-0.035,0.251-0.061,0.432-0.086,0.623
			c0.119,0,0.221-0.002,0.324-0.002c0.014,0.025,0.023,0.048,0.039,0.072c-0.164,0.123-0.316,0.256-0.488,0.371
			c-0.277,0.184-0.5,0.629-0.09,1.141c-0.438-0.08-0.766-0.02-0.783,0.504c0.148,0.011,0.311,0.023,0.525,0.043
			c-0.164,0.352-0.805,0.215-0.684,0.76c0.119-0.029,0.25-0.059,0.447-0.109c-0.188,0.267-0.188,0.648-0.709,0.435
			c0.172,0.254-0.238,0.499,0.17,0.61c-0.104,0.158-0.186,0.277-0.311,0.457c-0.02-0.003-0.141-0.035-0.252-0.021
			c-0.115,0.013-0.227,0.074-0.338,0.115c0.074,0.104,0.148,0.213,0.236,0.303c0.037,0.037,0.111,0.033,0.178,0.053
			c-0.137,0.209-0.271,0.412-0.428,0.652c0.209,0.032,0.328,0.051,0.479,0.071c-0.172,0.137-0.316,0.246-0.461,0.359
			c0.016,0.031,0.031,0.066,0.045,0.098c0.203,0.027,0.406,0.057,0.611,0.082c0.006,0.031,0.008,0.057,0.012,0.084
			c-0.17,0.056-0.334,0.113-0.555,0.191c0.51,0.242,1.344-0.141,1.707-0.725c0.053,0.096,0.102,0.184,0.193,0.346
			c0.32-0.264,0.619-0.506,0.916-0.754c0.109-0.088,0.217-0.176,0.311-0.277c0.252-0.264,0.492-0.537,0.736-0.803
			c0.078-0.085,0.156-0.187,0.258-0.238c0.311-0.157,0.551-0.373,0.762-0.658c0.18-0.248,0.479-0.405,0.688-0.635
			c0.129-0.139,0.168-0.357,0.283-0.51c0.119-0.148,0.291-0.256,0.471-0.402c-0.111-0.135,0-0.28,0.17-0.44
			c0.072-0.064,0.049-0.23,0.1-0.332c0.197-0.372-0.188-0.695-0.074-1.055c0.016-0.047,0-0.117-0.025-0.166
			c-0.197-0.362-0.156-0.499,0.225-0.678c0.051-0.023,0.098-0.059,0.145-0.086c-0.125-0.5,0.074-0.601,0.406-0.748
			c-0.051-0.061-0.098-0.117-0.145-0.174c0.008-0.016,0.016-0.035,0.018-0.035c0.342,0.109,0.383-0.324,0.611-0.346
			c0.254-0.023,0.512,0.064,0.771,0.086c0.182,0.016,0.369,0,0.547-0.066c0.422,0.127,0.852,0.234,1.264,0.392
			c0.32,0.122,0.617,0.215,0.814,0.092c0.381,0.152,0.678,0.251,0.951,0.395c0.125,0.068,0.23,0.213,0.289,0.35
			c0.055,0.123,0.031,0.277,0.049,0.443c-0.061,0.037-0.139,0.087-0.127,0.082c-0.031,0.291,0.018,0.576-0.1,0.701
			c-0.119,0.125-0.404,0.09-0.516,0.109c-0.154,0.309-0.287,0.541-0.385,0.789c-0.125,0.339-0.24,0.683-0.316,1.035
			c-0.078,0.352-0.158,0.717-0.143,1.07c0.023,0.434,0.143,0.863,0.234,1.354c-0.266,0.267-0.26,0.267-0.031,0.725
			c0.049,0.1,0.049,0.23,0.045,0.344c-0.023,0.521,0.127,0.709,0.643,0.714c0.289,0.005,0.609,0.01,0.875-0.094
			c0.264-0.105,0.484-0.336,0.717-0.523c0.174-0.144,0.355-0.291,0.508-0.461c0.631-0.699,1.26-1.406,1.885-2.113
			c0.512-0.575,1.02-1.16,1.535-1.73c0.355-0.389,0.766-0.725,1.063-1.152c0.188-0.27,0.359-0.48,0.662-0.61
			c0.1-0.043,0.115-0.251,0.197-0.357c0.209-0.252,0.428-0.488,0.652-0.721c0.611-0.625,1.383-1.098,1.824-1.887
			c0.023-0.041,0.055-0.086,0.098-0.102c0.656-0.302,1.088-0.855,1.547-1.379c0.035-0.041,0.098-0.054,0.15-0.078
			c0.334-0.154,0.436-0.395,0.35-0.736c-0.053-0.207-0.021-0.44-0.1-0.631c-0.1-0.251-0.268-0.476-0.406-0.71
			c-0.174-0.293-0.328-0.567-0.283-0.957c0.016-0.154-0.289-0.387-0.498-0.516c-0.275-0.18-0.305-0.238-0.021-0.484
			c-0.104-0.066-0.197-0.129-0.316-0.213c0.063-0.041,0.119-0.08,0.143-0.094c-0.072-0.205-0.193-0.397-0.197-0.594
			c-0.006-0.166-0.24-0.448,0.094-0.48c-0.045-0.127-0.076-0.237-0.107-0.344c-0.041-0.142-0.086-0.28-0.119-0.424
			c-0.021-0.074-0.031-0.155-0.016-0.229c0.057-0.339,0.135-0.672,0.188-1.013c0.109-0.688,0.523-1.163,1.059-1.56
			c0.07-0.053,0.133-0.117,0.195-0.178c0.125-0.112,0.258-0.219,0.373-0.34c0.117-0.125,0.211-0.271,0.322-0.4
			c0.117-0.133,0.223-0.298,0.373-0.387c0.213-0.125,0.463-0.188,0.775-0.309c0.172,0.173,0.381,0.438,0.641,0.621
			c0.209,0.15,0.516,0.16,0.719,0.313c0.537,0.402,1.168,0.634,1.695,1.066c0.436,0.359,1.035,0.52,1.559,0.779
			c0.184,0.09,3.195,1.359-0.264,4.664c-0.322,0.012-0.256,0.333-0.398,0.485c-0.084,0.085-0.686,0.535-0.602,0.734
			c0.172,0.426,2.164,1.415,2.568,2.028c0.01,0.188-0.125,0.395,0.113,0.555c0.029,0.02-0.094,0.257-0.135,0.369
			c0.135,0.255,0.322,0.496,0.365,0.76c0.027,0.136-0.609,0.93-0.738,1.115c0.082,0.119-0.578,0.555-0.48,0.748
			c0.059,0.125-0.672,0.209-0.959,0.179c-0.041-0.003-0.084,0.04-0.166,0.078c0.238,0.143,0.438,0.262,0.641,0.387
			c-0.203,0.813-0.881,1.5-1.084,2.319c0.15,0.027,0.25,0.045,0.291,0.053c-0.018,0.3-0.033,0.572-0.043,0.75
			c-0.139-0.066-0.313-0.152-0.488-0.236c-0.039,0.148-0.078,0.298-0.125,0.501c0.176-0.025,0.256-0.046,0.334-0.043
			c0.25,0.01,0.322,0.163,0.205,0.387c-0.113,0.227-0.215,0.458-0.344,0.727c0.16,0,0.248-0.002,0.395-0.002
			c-0.043,0.27-0.078,0.514-0.125,0.822c0.328-0.068,0.621-0.091,0.891-0.191c0.473-0.176,0.938-0.389,1.393-0.602
			c0.779-0.359,1.518-0.816,2.328-1.078c1.049-0.34,1.836-1.111,2.826-1.533c0.344-0.146,0.611-0.459,0.939-0.659
			c0.273-0.162,0.572-0.269,0.861-0.4c0.063-0.029,0.139-0.045,0.199-0.08c0.385-0.227,0.758-0.475,1.15-0.691
			c0.506-0.277,1.023-0.52,1.525-0.791C90.931,5.68,91.29,5.484,91.542,5.1c0.219-0.338,0.553-0.607,0.828-0.914
			c0.25-0.282,0.531-0.549,0.725-0.869c0.393-0.656,1.094-0.736,1.697-1.016c0.256-0.117,0.465-0.277,0.74-0.12
			c0.086,0.047,0.162,0.12,0.24,0.184c0.055,0.043,0.109,0.135,0.152,0.127c0.523-0.1,0.836,0.271,1.195,0.529
			c0.031,0.02,0.063,0.055,0.09,0.053c0.441-0.086,0.582,0.33,0.84,0.525c0.395,0.29,0.191,1.256-0.307,1.44
			c-0.479,0.176-0.992,0.259-1.467,0.404c-0.156,0.086-0.297,0.203-0.457,0.25c-0.309,0.082-0.475,0.317-0.652,0.539
			c-0.379,0.471-0.762,0.942-1.119,1.43c-0.256,0.354-0.469,0.734-0.703,1.102c-0.186,0.293-0.432,0.563-0.547,0.883
			c-0.109,0.326-0.125,0.697-0.115,1.049c0.006,0.141,0.537,0.16,0.707-0.018c0.324-0.343,0.824-0.468,1.094-0.886
			c0.064-0.098,0.195-0.174,0.309-0.221c0.328-0.137,0.477-0.377,0.422-0.721c-0.082-0.512-0.197-1.021-0.207-1.536
			c-0.006-0.191,0.219-0.41,0.379-0.578c0.172-0.18,0.391-0.313,0.59-0.462c0.035-0.026,0.078-0.051,0.125-0.061
			c0.691-0.184,1.402-0.222,2.119-0.232c0.334-0.002,0.656-0.072,0.955,0.125c0.035,0.025,0.105,0.027,0.145,0.008
			c0.531-0.291,0.723,0.109,0.955,0.48c-0.393,0.224-0.086,0.349,0.111,0.501c-0.086,0.079-0.145,0.18-0.219,0.195
			c-0.297,0.055-0.32,0.333-0.375,0.516c-0.059,0.197-0.02,0.469,0.078,0.66c0.125,0.242,0.23,0.477,0.318,0.738
			c0.162,0.475,0.451,0.901,0.672,1.36c0.092,0.191,0.146,0.402,0.201,0.609c0.027,0.097-0.004,0.242,0.055,0.292
			c0.432,0.395,0.5,0.975,0.77,1.45c0.137,0.232,0.303,0.445,0.459,0.666c0.021,0.027,0.047,0.055,0.064,0.078
			c0.598,0.844,0.771,1.039,1.781,1.523c0.379,0.176,0.826,0.203,1.248,0.258c0.381,0.047,0.766,0.055,1.15,0.055
			c0.371-0.004,0.818,0.078,1.1-0.098c0.672-0.414,1.586-0.434,2.037-1.227c0.102-0.176,0.307-0.293,0.434-0.457
			c0.357-0.473,0.678-0.977,1.055-1.434c0.225-0.271,0.529-0.479,0.809-0.706c0.025-0.023,0.098,0.018,0.191,0.042
			c-0.246,0.625-0.5,1.221-0.713,1.832c-0.057,0.156,0.047,0.367,0,0.535c-0.135,0.465-0.439,0.832-0.771,1.176
			c-0.035,0.031-0.057,0.078-0.082,0.121c-0.094,0.16-0.162,0.348-0.287,0.473c-0.156,0.156-0.35,0.289-0.553,0.371
			c-0.348,0.137-0.395,0.367-0.26,0.723c-0.141,0.016-0.256,0.055-0.365,0.039c-0.182-0.027-0.266,0.059-0.4,0.176
			c-0.203,0.172-0.508,0.223-0.771,0.328c-0.119,0.047-0.234,0.102-0.348,0.156c0.016,0.039,0.025,0.074,0.041,0.113
			c-0.076-0.016-0.205-0.063-0.221-0.039c-0.209,0.305-0.553,0.25-0.836,0.352c-0.178,0.07-0.469,0.125-0.396,0.465
			c0,0.02-0.209,0.098-0.322,0.121c-0.066,0.016-0.168-0.09-0.209-0.063c-0.334,0.199-0.654,0.18-1.016,0.055
			c-0.287-0.102-0.609-0.086-0.906-0.164c-0.195-0.055-0.381-0.168-0.557-0.266c-0.279-0.152-0.547-0.328-0.832-0.477
			c-0.189-0.102-0.393-0.18-0.602-0.277c0.141-0.309-0.15-0.496-0.322-0.691c-0.275-0.313-0.5,0.059-0.729,0.164
			c-0.125-0.168-0.225-0.305-0.318-0.434c0.26-0.527,0.256-0.543-0.459-0.75c0.234-0.137,0.266-0.246,0.031-0.406
			c-0.219-0.152-0.369-0.406-0.594-0.539c-0.238-0.141-0.369-0.262-0.166-0.523c-0.141-0.082-0.244-0.137-0.338-0.203
			c-0.068-0.051-0.172-0.121-0.17-0.172c0.072-0.624-0.555-0.827-0.758-1.277c-0.1-0.221-0.244-0.445-0.252-0.67
			c-0.014-0.282-0.16-0.41-0.35-0.559c-0.115-0.086-0.188-0.234-0.252-0.367c-0.082-0.178-0.141-0.369-0.262-0.68
			c-0.158,0.179-0.258,0.299-0.363,0.41c-0.059,0.057-0.123,0.097-0.184,0.145c-0.141,0.109-0.281,0.214-0.416,0.328
			c-0.26,0.225-0.484,0.558-0.791,0.664c-0.41,0.144-0.771,0.433-1.256,0.436c-0.291,0.002-0.594,0.201-0.865,0.349
			c-0.27,0.145-0.504,0.277-0.832,0.165c-0.184-0.063-0.412,0.008-0.609-0.027c-0.887-0.15-1.271-0.786-1.514-1.567
			c-0.076-0.234-0.197-0.466-0.352-0.662c-0.275-0.354-0.35-0.701-0.189-1.141c0.168-0.451,0.258-0.932,0.387-1.428
			c-0.281-0.168-0.488,0.078-0.695,0.214c-0.371,0.245-0.721,0.52-1.08,0.781c-0.01,0.004-0.029,0.01-0.031,0.018
			c-0.156,0.693-0.963,0.689-1.275,1.185c-0.313,0.5-0.881,0.616-1.295,0.959c-0.467,0.387-1.014,0.672-1.529,1
			c-0.322,0.205-0.66,0.387-0.969,0.615c-0.313,0.234-0.588,0.518-0.879,0.779c-0.115-0.147-0.506-0.17-0.656-0.008
			c-0.109,0.113-0.24,0.227-0.279,0.363c-0.146,0.484-0.502,0.504-0.914,0.516c-0.43,0.008-0.869-0.047-1.287,0.18
			c-0.182,0.102-0.453,0.047-0.676,0.094c-0.209,0.047-0.406,0.137-0.521,0.18c-0.365-0.105-0.693-0.152-0.967-0.289
			c-0.402-0.203-0.766-0.484-1.164-0.707c-0.5-0.285-0.832-0.68-0.939-1.26c-0.014-0.066-0.049-0.145-0.094-0.188
			c-0.389-0.333-0.424-0.738-0.359-1.227c0.031-0.222-0.154-0.484-0.268-0.712c-0.156-0.307-0.121-0.561,0.191-0.771
			c-0.113-0.079-0.188-0.133-0.291-0.208c0.068-0.113,0.162-0.21,0.197-0.328c0.059-0.152,0.082-0.317,0.105-0.477
			c0.025-0.164,0.055-0.326,0.055-0.492c0-0.219-0.02-0.438-0.035-0.656c-0.004-0.059-0.059-0.143-0.041-0.168
			c0.365-0.399-0.072-0.895,0.166-1.325c0.068-0.117-0.031-0.336-0.064-0.507c-0.016-0.074-0.055-0.145-0.07-0.221
			c-0.021-0.146,0.623-0.947,0.609-1.133c-0.305,0.141-1.369,0.666-1.227,1.143C73.339,5.38,73.19,5.49,73.095,5.799
			c-0.109,0.344-0.459,0.619-0.725,0.904c-0.229,0.24-0.494,0.443-0.73,0.669c-0.398,0.379-0.803,0.754-1.186,1.145
			c-0.164,0.163-0.283,0.359-0.428,0.54c-0.004,0.012-0.004,0.025-0.016,0.033c-0.479,0.52-0.955,1.041-1.438,1.56
			c-0.141,0.152-0.285,0.297-0.426,0.45c-0.047,0.051-0.07,0.128-0.125,0.16c-0.512,0.289-0.891,0.691-1.176,1.211
			c-0.096,0.179-0.34,0.275-0.508,0.421c-0.293,0.266-0.563,0.571-0.879,0.807c-0.412,0.313-0.717,0.758-1.26,0.918
			c-0.234,0.066-0.379,0.402-0.592,0.582c-0.221,0.184-0.482,0.328-0.721,0.492c-0.051,0.031-0.109,0.07-0.125,0.117
			c-0.084,0.25-0.273,0.32-0.5,0.289c-0.313-0.043-0.35,0.301-0.584,0.387c-0.693,0.254-1.365,0.402-2-0.152
			c-0.109-0.094-0.279-0.109-0.408-0.176c-0.211-0.113-0.436-0.168-0.582-0.438c-0.166-0.316-0.52-0.531-0.736-0.832
			c-0.289-0.414-0.547-0.859-0.779-1.313c-0.135-0.26-0.254-0.197-0.41-0.061c-0.188,0.166-0.379,0.33-0.547,0.514
			c-0.055,0.066-0.055,0.188-0.148,0.23c-0.123,0.191-0.246,0.383-0.398,0.617c-0.115-0.129-0.285-0.324-0.475-0.527
			c-0.275,0.32-0.854,0.172-0.938,0.75c0.053,0.043,0.131,0.105,0.193,0.16c-0.537,0.352-1.07,0.699-1.607,1.051
			c0.236-0.285,0.477-0.574,0.672-0.816c-0.236-0.02-0.791,0.426-0.797,0.73C52.71,16.246,52.798,16.27,52.845,16.297 M77.136-2.33
			c0.168-0.287-0.557-1.104-1.119-1.389c-0.297,0.343-0.041,1.277-0.359,1.646c0.305,0.219,0.553,0.684,0.553,0.967
			c0,0.305,0.203,0.451,0.453,0.299c0.26-0.16,0.5-0.355,0.729-0.551C77.714-1.635,77.573-2.186,77.136-2.33 M18.525,8.818
			c-0.008,0.055-0.016,0.109-0.023,0.163c0.084,0.021,0.168,0.043,0.248,0.061c-0.078,0.033-0.166,0.066-0.254,0.105
			c-0.002,0.043-0.004,0.082-0.008,0.122c0.223,0.049,0.451,0.156,0.664,0.123c0.314-0.045,0.494-0.295,0.59-0.6
			c-0.223,0.047-0.418,0.115-0.617,0.117C18.921,8.914,18.726,8.853,18.525,8.818 M16.107,7.369c0.418,0.057,0.408,0.051,0.535-0.16
			c0.078-0.129,0.088-0.371,0.355-0.293c0.021,0.006,0.068-0.09,0.107-0.139c-0.066-0.026-0.168-0.096-0.199-0.072
			C16.656,6.895,16.417,7.105,16.107,7.369 M55.673,13.863c0.037,0.023,0.066,0.051,0.1,0.074c0.328-0.199,0.568-0.547,0.459-0.771
			C56.032,13.416,55.856,13.641,55.673,13.863 M19.128,9.578c-0.277,0.143-0.508,0.263-0.773,0.4
			C18.751,10.082,19.011,9.945,19.128,9.578 M18.298,7.591c0.02-0.011,0.037-0.019,0.057-0.031c-0.105-0.153-0.189-0.324-0.32-0.45
			c-0.031-0.029-0.211,0.096-0.314,0.145C17.937,7.383,18.117,7.486,18.298,7.591 M56.411,13.111c0.039,0.02,0.08,0.038,0.119,0.055
			c0.096-0.145,0.195-0.295,0.289-0.445c-0.025-0.023-0.057-0.047-0.084-0.071c-0.111,0.051-0.227,0.102-0.355,0.16
			C56.39,12.914,56.399,13.016,56.411,13.111 M17.394,6.626c0.039-0.027,0.078-0.056,0.115-0.083
			c-0.076-0.112-0.158-0.221-0.234-0.331c-0.08,0.063-0.16,0.131-0.271,0.221C17.187,6.527,17.291,6.576,17.394,6.626 M21.642-5.297
			c-0.021-0.008-0.041-0.018-0.066-0.028c-0.109,0.079-0.232,0.148-0.326,0.245c-0.041,0.043-0.025,0.141-0.035,0.216
			c0.074,0,0.191,0.026,0.215-0.008C21.517-5.004,21.574-5.155,21.642-5.297"/>
	</g>
	<g>
		<defs>
			<rect id="SVGID_25_" x="-82.49" y="-31.745" width="226.772" height="90.645"/>
		</defs>
		<clipPath id="SVGID_26_">
			<use xlink:href="#SVGID_25_"  overflow="visible"/>
		</clipPath>
		<path clip-path="url(#SVGID_26_)" fill="#48484A" d="M-26.548-12.747c-0.305,0.038-0.609,0.071-0.912,0.109
			c0.021,0.028,0.039,0.063,0.061,0.096c-0.307,0.263-0.616,0.522-0.913,0.797c-0.123,0.112-0.208,0.252-0.333,0.408
			c0.188,0.045,0.305,0.075,0.425,0.104c0.053-0.147,0.106-0.291,0.172-0.474c0.133,0.123,0.251,0.191,0.304,0.296
			c0.037,0.069,0.012,0.245-0.037,0.272c-0.208,0.107-0.432,0.232-0.654,0.237c-0.534,0.011-0.583,0.008-0.959,0.488
			c0.387,0.12,0.576,0.008,0.588-0.397c0.099,0.021,0.25,0.016,0.27,0.066c0.033,0.072-0.028,0.189-0.047,0.285
			c-0.021,0.104-0.042,0.208-0.057,0.264c-0.517,0.059-0.74,0.52-1.109,0.827c-0.044-0.064-0.087-0.134-0.135-0.201
			c-0.019,0.005-0.043,0.01-0.062,0.016c0.008,0.126,0.019,0.251,0.027,0.376c-0.027-0.019-0.054-0.037-0.08-0.056
			c-0.285,0.465-0.568,0.926-0.832,1.355c0.168,0.127,0.301,0.232,0.379,0.291c0.557-0.595,1.131-1.206,1.706-1.816
			c0.041,0.032,0.082,0.061,0.119,0.094c-0.076,0.216-0.035,0.469-0.365,0.573c-0.277,0.088-0.296,0.28-0.107,0.565
			c-0.445-0.109-0.689,0.094-1.013,0.843c0.066,0.006,0.13,0.014,0.258,0.027c-0.186,0.219-0.346,0.402-0.527,0.613
			c-0.047-0.102-0.077-0.171-0.082-0.181c-0.147,0.09-0.289,0.181-0.426,0.272c0.01-0.139,0.018-0.274,0.033-0.491
			c-0.191,0.181-0.328,0.309-0.466,0.44c0.021,0.023,0.043,0.047,0.062,0.072c0.125-0.01,0.254-0.021,0.381-0.035
			c0.018,0.355,0.074,0.707-0.133,1.035c-0.168,0.267-0.083,0.522,0.066,0.771c0.049,0.079,0.127,0.221,0.107,0.242
			c-0.232,0.224-0.094,0.475-0.086,0.72c0.01,0.315,0.168,0.499,0.493,0.461c0.238-0.026,0.313,0.094,0.32,0.27
			c0,0.051-0.176,0.089-0.243,0.163c-0.078,0.081-0.195,0.224-0.168,0.284c0.149,0.351,0.149,0.809,0.622,0.945
			c0.021,0.004,0.047,0.024,0.054,0.04c0.105,0.639,0.881,0.55,1.125,1.039c0.002,0.012,0.018,0.012,0.028,0.018
			c0.455,0.176,0.91,0.352,1.367,0.529c0.02,0.008,0.053,0.004,0.066,0.018c0.317,0.344,0.768,0.427,1.176,0.592
			c0.455,0.184,0.92,0.352,1.379,0.531c0.375,0.147,0.752,0.297,1.119,0.453c0.051,0.022,0.069,0.112,0.112,0.163
			c0.043,0.053,0.094,0.139,0.142,0.139c0.598,0.006,1.008,0.424,1.499,0.662c0.097,0.047,0.197,0.074,0.291,0.123
			c0.178,0.094,0.354,0.194,0.531,0.295c0.049,0.029,0.098,0.091,0.148,0.094c0.463,0.023,0.699,0.4,1.03,0.629
			c0.156,0.107,0.349,0.158,0.533,0.221c0.42,0.143,0.827,0.283,1.043,0.729c0.038,0.078,0.173,0.115,0.274,0.152
			c0.219,0.083,0.453,0.127,0.659,0.234c0.198,0.104,0.359,0.264,0.557,0.414c-0.035,0.09-0.064,0.176-0.102,0.275
			c0.608-0.02,0.926,0.324,1.19,0.786c0.087,0.148,0.316,0.214,0.458,0.342c0.091,0.082,0.141,0.211,0.245,0.373
			c0.176,0.006,0.355,0.203,0.351,0.461c-0.004,0.064,0.018,0.156,0.063,0.187c0.608,0.418,0.808,0.694,1.013,1.397
			c0.026,0.088,0.109,0.158,0.17,0.244c-0.114,0.023-0.224,0.043-0.333,0.066c-0.035,0.045-0.066,0.088-0.104,0.133
			c0.089,0.035,0.184,0.055,0.265,0.104c0.493,0.302,0.542,0.691,0.277,1.213c-0.13,0.26-0.14,0.609-0.107,0.906
			c0.013,0.127,0.272,0.225,0.486,0.385c-0.222,0.333-0.501,0.758-0.781,1.182c-0.033-0.035-0.062-0.07-0.094-0.106
			c-0.14,0.079-0.288,0.145-0.402,0.254c-0.027,0.022,0.069,0.182,0.148,0.374c-0.085,0.109-0.677,0.219-0.16,0.539
			c-0.167,0.113-0.312,0.281-0.487,0.324c-0.317,0.082-0.384,0.246-0.27,0.555c-0.203,0.063-0.36,0.125-0.331-0.191
			c0.01-0.109-0.008-0.227-0.021-0.344c-0.009-0.086-0.032-0.168-0.051-0.258c-0.065,0.063-0.137,0.117-0.19,0.18
			c-0.107,0.129-0.205,0.258-0.326,0.41c0.015,0.004,0.054,0.027,0.117,0.066c-0.077,0.047-0.148,0.09-0.239,0.148
			c0.056,0.109,0.109,0.211,0.198,0.391c-0.366,0.004-0.686,0.004-1.053,0.008c-0.224,0.219-0.504,0.484-0.816,0.781
			c0.002,0.012,0.035,0.094,0.086,0.227c-0.158,0.047-0.339,0.164-0.43,0.113c-0.288-0.152-0.417,0.059-0.582,0.191
			c-0.418,0.34-0.832,0.684-1.275,1.047c-0.059-0.113-0.1-0.188-0.145-0.273c-0.027,0.016-0.051,0.035-0.078,0.051
			c-0.256,0.137-0.457,0.34-0.818,0.25c-0.193-0.051-0.445,0.168-0.674,0.262c-0.135,0.055-0.277,0.09-0.433,0.082
			c0.156-0.133,0.309-0.266,0.466-0.395c-0.018-0.035-0.041-0.063-0.056-0.094c-0.066-0.008-0.135-0.039-0.194-0.023
			c-0.443,0.109-0.883,0.227-1.318,0.355c-0.071,0.023-0.117,0.137-0.172,0.207c0.092,0.039,0.196,0.109,0.279,0.094
			c0.268-0.055,0.525-0.141,0.787-0.219c0.02,0.031,0.04,0.059,0.061,0.086c-0.051,0.051-0.094,0.133-0.154,0.148
			c-0.154,0.055-0.35,0.039-0.472,0.121c-0.36,0.254-0.672-0.043-1.004-0.055c-0.318-0.012-0.636,0.109-0.761,0.418
			c-0.028,0.074-0.096,0.137-0.211,0.168c0.023-0.109,0.043-0.219,0.082-0.406c-0.644,0.188-0.896,0.75-1.308,1.109
			c-0.535-0.363-1.023-0.398-1.219-0.125c-0.186,0-0.356,0.004-0.596,0.004c0.077-0.164,0.154-0.332,0.26-0.555
			c-0.542,0.25-0.903-0.027-1.277-0.262c-0.018-0.012-0.053-0.027-0.055-0.043c-0.093-0.555-0.645-0.629-0.979-0.93
			c-0.115-0.105-0.228-0.215-0.353-0.305c-0.148-0.109-0.323-0.191-0.458-0.313c-0.217-0.195-0.445-0.391-0.596-0.633
			c-0.068-0.117,0.038-0.34,0.078-0.512c0.01-0.051,0.069-0.125,0.112-0.129c0.416-0.043,0.843-0.141,1.25-0.09
			c0.56,0.066,1.109,0.238,1.66,0.379c0.613,0.156,1.203-0.02,1.801-0.105c0.129-0.02,0.266-0.02,0.458-0.035
			c0.013-0.02,0.078-0.102,0.121-0.16c0.254,0.02,0.482,0.055,0.711,0.059c0.214,0.008,0.336,0.094,0.357,0.313
			c-0.189,0.125-0.387,0.25-0.184,0.594c-0.445,0.047-0.837,0.09-1.232,0.133c-0.004-0.035-0.01-0.066-0.02-0.098
			c0.262-0.105,0.523-0.215,0.852-0.348c-0.147-0.063-0.215-0.102-0.292-0.133c-0.084-0.031-0.17-0.063-0.255-0.09
			c-0.221,0.422-0.563,0.543-0.965,0.34c-0.085,0.215-0.187,0.418-0.246,0.633c-0.038,0.137-0.03,0.281,0.207,0.273
			c0.122-0.004,0.25,0.086,0.379,0.137c-0.007,0.031-0.015,0.059-0.02,0.09c0.122-0.031,0.248-0.059,0.381-0.09
			c-0.168-0.16-0.322-0.305-0.486-0.457c0.152-0.188,0.492-0.016,0.814,0.547c0.045-0.086,0.077-0.148,0.112-0.211
			c0.094-0.168,0.148-0.313,0.435-0.242c0.133,0.031,0.346-0.266,0.533-0.422c0.279,0.137,0.582,0.055,0.895-0.309
			c-0.295,0.063-0.527,0.117-0.796,0.176c-0.04-0.172-0.079-0.352-0.117-0.531c0.021-0.176,0.043-0.352,0.064-0.52
			c0.646-0.215,1.285-0.438,1.932-0.637c0.277-0.082,0.575-0.102,0.852-0.18c0.191-0.051,0.369-0.148,0.544-0.23
			c0.237-0.113,0.473-0.23,0.707-0.355c0.24-0.125,0.475-0.27,0.715-0.395c0.08-0.043,0.174-0.059,0.258-0.09
			c0.198-0.086,0.401-0.164,0.59-0.27c0.486-0.27,0.957-0.551,1.44-0.826c0.301-0.17,0.603-0.325,0.741-0.684
			c0.064-0.168,0.234-0.291,0.344-0.445c0.051-0.07,0.065-0.166,0.097-0.246c0.038-0.083,0.056-0.221,0.114-0.243
			c0.28-0.097,0.363-0.332,0.347-0.563c-0.021-0.352-0.107-0.703-0.181-1.046c-0.016-0.063-0.13-0.109-0.194-0.16
			c-0.099,0.342-0.185,0.646-0.272,0.947c-0.035,0-0.066-0.002-0.102-0.002c0-0.234-0.005-0.472-0.005-0.708
			c-0.003-0.801-0.366-1.475-0.741-2.15c-0.31-0.557-0.798-0.949-1.216-1.411c-0.563-0.617-1.267-0.986-1.92-1.445
			c-0.398-0.281-0.792-0.566-1.207-0.824c-0.204-0.129-0.448-0.2-0.668-0.307c-0.52-0.248-1.046-0.491-1.558-0.76
			c-0.581-0.304-1.127-0.667-1.784-0.843c-0.506-0.135-0.992-0.372-1.474-0.598c-0.192-0.092-0.317-0.285-0.493-0.387
			c-0.129-0.071-0.305-0.051-0.441-0.111c-0.551-0.234-1.104-0.469-1.643-0.736c-0.24-0.119-0.443-0.318-0.666-0.481
			c-0.064-0.048-0.128-0.113-0.205-0.137c-0.582-0.168-0.969-0.593-1.345-1.023c-0.211-0.25-0.387-0.529-0.588-0.809
			c-0.035,0.024-0.094,0.066-0.229,0.17c-0.003-0.213,0.031-0.365-0.015-0.488c-0.043-0.123-0.153-0.237-0.262-0.319
			c-0.135-0.097-0.308-0.137-0.191-0.369c0.02-0.038-0.098-0.208-0.117-0.203c-0.125,0.041-0.242,0.109-0.438,0.206
			c-0.104-0.216-0.27-0.509-0.389-0.822c-0.15-0.395-0.193-0.853-0.418-1.197c-0.424-0.651-0.365-1.344-0.33-2.045
			c0.025-0.506,0.031-1-0.148-1.494c-0.069-0.196-0.012-0.461,0.054-0.672c0.016-0.061,0.27-0.048,0.458-0.077
			c0.054-0.174,0.054-0.174-0.442-0.48c0.088-0.051,0.16-0.088,0.189-0.104c-0.088-0.206-0.176-0.413-0.283-0.659
			c0.144,0,0.219,0,0.316-0.002c-0.034-0.213-0.034-0.418,0.3-0.349c-0.109-0.848,0.471-1.448,0.732-2.16
			c0.1-0.264,0.115-0.563,0.234-0.813c0.145-0.298,0.355-0.565,0.542-0.84c0.191-0.283,0.382-0.568,0.59-0.84
			c0.173-0.224,0.357-1.043,0.563-1.234c0.52-0.494,1.059-0.962,1.583-1.451c0.163-0.15-0.291-0.323-0.146-0.488
			c0.574-0.659,1.344-1.041,2.07-1.488c0.305-0.186,0.58-0.426,0.877-0.629c0.397-0.272,0.799-0.537,1.202-0.803
			c0.008-0.005,0.02-0.021,0.027-0.021c0.611,0.016,0.914-0.082,1.531-0.069c0.235,0.005,0.498-0.134,0.699-0.064
			c0.381,0.135,0.684-0.076,1.023-0.102c0.145-0.01,0.299,0.084,0.439,0.066c0.221-0.029,0.479-0.216,0.641-0.147
			c0.194,0.081,0.941,0.233,1.194,0.251c0.171,0.011,0.333,0.194,0.509,0.309c0.063-0.061,0.131-0.194,0.233-0.224
			c0.095-0.026,0.301,0.03,0.322,0.094c0.201,0.61,0.721,0.584,1.195,0.592c0.206,0.002,0.237,0.096,0.354,0.219
			c0.256,0.26,0.592,0.461,0.928,0.619c0.24,0.112,0.397,0.208,0.469,0.493c0.054,0.211,0.23,0.429,0.412,0.555
			c0.6,0.41,1.232,0.773,1.837,1.173c0.149,0.099,0.234,0.288,0.367,0.416c0.078,0.078,0.192,0.163,0.289,0.163
			c0.277,0.002,0.377,0.221,0.453,0.397c0.234,0.555,0.427,1.129,0.646,1.723c-0.091,0.015-0.169,0.025-0.251,0.035
			c-0.021,0.123-0.043,0.248-0.048,0.28c-0.288,0.045-0.52,0.077-0.751,0.12c-0.243,0.048-0.577-0.15-0.661-0.397
			c-0.02-0.054-0.041-0.12-0.081-0.15c-0.267-0.184-0.538-0.359-0.81-0.53c-0.056-0.035-0.171-0.064-0.19-0.043
			c-0.285,0.358-0.44-0.048-0.647-0.109c-0.145-0.043-0.281-0.115-0.427-0.16c-0.16-0.051-0.328-0.09-0.501-0.123
			c-0.066-0.013-0.147-0.013-0.211,0.008c-0.288,0.112-0.573,0.232-0.858,0.346c-0.051,0.02-0.112,0.043-0.163,0.03
			c-0.277-0.069-0.414,0.079-0.536,0.301c-0.156,0.282-0.459,0.376-0.769,0.277c-0.066-0.021-0.18,0.014-0.242,0.061
			c-0.206,0.168-0.397,0.355-0.613,0.549c-0.211-0.176-0.368-0.135-0.488,0.152c-0.053,0.125-0.208,0.208-0.315,0.308
			c0.043,0.028,0.092,0.063,0.139,0.095c-0.008,0.043-0.012,0.086-0.022,0.129c-0.205-0.009-0.41-0.017-0.619-0.024
			c-0.012-0.041-0.028-0.08-0.043-0.117c-0.061,0.127-0.121,0.259-0.18,0.387c-0.008-0.021-0.016-0.043-0.023-0.062
			c-0.339,0.184-0.686,0.357-1.011,0.563c-0.333,0.208-0.645,0.451-0.973,0.683c-0.066-0.194,0.178-0.723,0.348-0.835
			c0.535-0.354,1.06-0.72,1.595-1.074c0.19-0.125,0.402-0.221,0.598-0.346c0.074-0.051,0.125-0.139,0.186-0.211
			c-0.09,0-0.194-0.038-0.27,0c-0.354,0.173-1.127,0.234-1.535,0.088c0.003,0.159,0.003,0.304,0.005,0.484
			c0.163-0.084,0.28-0.146,0.445-0.229c-0.139,0.506-0.283,0.552-0.621,0.288c-0.094-0.071-0.254-0.071-0.381-0.069
			c-0.089,0.002-0.174,0.072-0.268,0.096c-0.074,0.019-0.158,0.013-0.333,0.023c0.138,0.12,0.216,0.188,0.289,0.249
			c-0.504,0.442-0.555,0.682-1.15,0.356c-0.044,0.074-0.092,0.152-0.143,0.232c-0.143-0.034-0.285-0.072-0.433-0.107
			c0.011,0.035,0.025,0.07,0.039,0.104c-0.242,0.112-0.492,0.206-0.715,0.341c-0.084,0.051-0.128,0.195-0.152,0.305
			c-0.019,0.09,0.02,0.191,0.032,0.288L-26.548-12.747z M-28.501-17.971c0.509,0.099,0.761-0.555,0.738-0.928
			C-28.187-18.606-28.015-18.31-28.501-17.971 M-20.066,15.332c0.014-0.297-0.142-0.445-0.422-0.422
			c-0.24,0.023-0.42,0.137-0.384,0.43C-20.603,15.34-20.343,15.332-20.066,15.332 M-33.669-3.62
			c-0.192-0.331-0.346-0.603-0.506-0.877c-0.037,0.017-0.072,0.035-0.111,0.051c0.133,0.32,0.262,0.641,0.41,1
			C-33.765-3.539-33.699-3.595-33.669-3.62 M-30.474-16.075c-0.152,0.094-0.352,0.819-0.555,0.944
			C-30.437-15.313-30.437-15.907-30.474-16.075 M-19.681,17.258c0.445-0.09,0.596-0.273,0.598-0.367
			C-19.263,17-19.439,17.109-19.681,17.258"/>
	</g>
	<g>
		<defs>
			<rect id="SVGID_27_" x="-82.49" y="-31.745" width="226.772" height="90.645"/>
		</defs>
		<clipPath id="SVGID_28_">
			<use xlink:href="#SVGID_27_"  overflow="visible"/>
		</clipPath>
		<path clip-path="url(#SVGID_28_)" fill="#48484A" d="M-26.001-11.577c-0.011-0.088-0.023-0.178-0.033-0.298
			c0.624-0.221,0.848-1.083,1.651-1.086c0.189,0.451,0.179,0.425-0.313,0.585c-0.229,0.074-0.479,0.234-0.605,0.431
			c-0.184,0.289-0.43,0.331-0.711,0.358L-26.001-11.577z"/>
	</g>
	<g>
		<defs>
			<rect id="SVGID_29_" x="-82.49" y="-31.745" width="226.772" height="90.645"/>
		</defs>
		<clipPath id="SVGID_30_">
			<use xlink:href="#SVGID_29_"  overflow="visible"/>
		</clipPath>
		<path clip-path="url(#SVGID_30_)" fill="#48484A" d="M-26.56-12.739c0.318-0.082,0.632-0.166,0.945-0.245
			c0,0.266-0.512,0.733-0.705,0.672c-0.219,0.151-0.412,0.285-0.613,0.426c-0.123-0.095-0.234-0.186-0.432-0.344
			c0.208,0.008,0.307,0.011,0.36,0.013c0.164-0.189,0.309-0.359,0.457-0.533C-26.548-12.747-26.56-12.739-26.56-12.739"/>
	</g>
	<g>
		<defs>
			<rect id="SVGID_31_" x="-82.49" y="-31.745" width="226.772" height="90.645"/>
		</defs>
		<clipPath id="SVGID_32_">
			<use xlink:href="#SVGID_31_"  overflow="visible"/>
		</clipPath>
		<path clip-path="url(#SVGID_32_)" fill="#48484A" d="M-26.013-11.587c0.101,0.247-0.073,0.374-0.235,0.481
			c-0.184,0.126-0.4,0.203-0.566,0.345c-0.114,0.092-0.168,0.258-0.264,0.423c-0.064-0.194-0.115-0.341-0.173-0.525
			c0.059-0.022,0.126-0.059,0.199-0.069c0.18-0.03,0.317-0.068,0.361-0.305c0.057-0.309,0.366-0.435,0.689-0.341L-26.013-11.587z"/>
	</g>
	<g>
		<defs>
			<rect id="SVGID_33_" x="-82.49" y="-31.745" width="226.772" height="90.645"/>
		</defs>
		<clipPath id="SVGID_34_">
			<use xlink:href="#SVGID_33_"  overflow="visible"/>
		</clipPath>
		<path clip-path="url(#SVGID_34_)" fill="#48484A" d="M-28.661-9.521c0.433-0.363,0.787-0.664,1.148-0.952
			c0.039-0.032,0.119-0.01,0.18-0.016c0.003,0.064,0.031,0.163,0.003,0.184c-0.336,0.277-0.678,0.547-1.023,0.808
			C-28.394-9.467-28.48-9.505-28.661-9.521"/>
	</g>
	<g>
		<defs>
			<rect id="SVGID_35_" x="-82.49" y="-31.745" width="226.772" height="90.645"/>
		</defs>
		<clipPath id="SVGID_36_">
			<use xlink:href="#SVGID_35_"  overflow="visible"/>
		</clipPath>
		<path clip-path="url(#SVGID_36_)" fill="#48484A" d="M-23.552,19.02c-0.315,0.266-0.621,0.539-0.946,0.785
			c-0.043,0.035-0.176-0.055-0.26-0.082c0.213-0.152,0.465-0.242,0.57-0.422c0.145-0.242,0.326-0.32,0.539-0.398
			C-23.618,18.941-23.583,18.98-23.552,19.02"/>
	</g>
	<g>
		<defs>
			<rect id="SVGID_37_" x="-82.49" y="-31.745" width="226.772" height="90.645"/>
		</defs>
		<clipPath id="SVGID_38_">
			<use xlink:href="#SVGID_37_"  overflow="visible"/>
		</clipPath>
		<path clip-path="url(#SVGID_38_)" fill="#48484A" d="M19.191,7.055c0.25-0.28,0.438-0.494,0.668-0.754
			c0.053,0.242,0.094,0.445,0.117,0.555C19.712,6.924,19.488,6.982,19.191,7.055"/>
	</g>
	<g>
		<defs>
			<rect id="SVGID_39_" x="-82.49" y="-31.745" width="226.772" height="90.645"/>
		</defs>
		<clipPath id="SVGID_40_">
			<use xlink:href="#SVGID_39_"  overflow="visible"/>
		</clipPath>
		<path clip-path="url(#SVGID_40_)" fill="#48484A" d="M50.7,17.871c0.244-0.047,0.486-0.082,0.734-0.121
			C51.45,18.078,51.235,18.137,50.7,17.871"/>
	</g>
	<g>
		<defs>
			<rect id="SVGID_41_" x="-82.49" y="-31.745" width="226.772" height="90.645"/>
		</defs>
		<clipPath id="SVGID_42_">
			<use xlink:href="#SVGID_41_"  overflow="visible"/>
		</clipPath>
		<path clip-path="url(#SVGID_42_)" fill="#48484A" d="M19.914,7.884c-0.252-0.023-0.445-0.043-0.641-0.062
			c-0.004-0.023-0.008-0.047-0.012-0.068c0.219-0.084,0.434-0.168,0.701-0.27C19.945,7.639,19.933,7.751,19.914,7.884"/>
	</g>
	<g>
		<defs>
			<rect id="SVGID_43_" x="-82.49" y="-31.745" width="226.772" height="90.645"/>
		</defs>
		<clipPath id="SVGID_44_">
			<use xlink:href="#SVGID_43_"  overflow="visible"/>
		</clipPath>
		<path clip-path="url(#SVGID_44_)" fill="#48484A" d="M19.611,5.169c0.104-0.117,0.209-0.238,0.387-0.434
			c0.021,0.211,0.084,0.379,0.031,0.43c-0.072,0.076-0.232,0.068-0.354,0.094C19.654,5.232,19.628,5.201,19.611,5.169"/>
	</g>
	<g>
		<defs>
			<rect id="SVGID_45_" x="-82.49" y="-31.745" width="226.772" height="90.645"/>
		</defs>
		<clipPath id="SVGID_46_">
			<use xlink:href="#SVGID_45_"  overflow="visible"/>
		</clipPath>
		<path clip-path="url(#SVGID_46_)" fill="#48484A" d="M19.955,3.826c0.221-0.027,0.373-0.046,0.521-0.062
			c0.01,0.027,0.016,0.057,0.023,0.084c-0.092,0.082-0.182,0.168-0.303,0.271C20.121,4.025,20.058,3.951,19.955,3.826"/>
	</g>
	<g>
		<defs>
			<rect id="SVGID_47_" x="-82.49" y="-31.745" width="226.772" height="90.645"/>
		</defs>
		<clipPath id="SVGID_48_">
			<use xlink:href="#SVGID_47_"  overflow="visible"/>
		</clipPath>
		<path clip-path="url(#SVGID_48_)" fill="#48484A" d="M18.525,8.818c0.201,0.035,0.396,0.096,0.598,0.094
			c0.197-0.003,0.395-0.074,0.615-0.117c-0.096,0.303-0.273,0.555-0.588,0.598c-0.211,0.033-0.439-0.074-0.664-0.122
			c0.002-0.039,0.006-0.08,0.008-0.123c0.088-0.038,0.176-0.072,0.252-0.104c-0.078-0.021-0.164-0.043-0.246-0.062
			C18.509,8.924,18.517,8.871,18.525,8.818"/>
	</g>
	<g>
		<defs>
			<rect id="SVGID_49_" x="-82.49" y="-31.745" width="226.772" height="90.645"/>
		</defs>
		<clipPath id="SVGID_50_">
			<use xlink:href="#SVGID_49_"  overflow="visible"/>
		</clipPath>
		<path clip-path="url(#SVGID_50_)" fill="#48484A" d="M52.845,16.297c-0.047-0.027-0.135-0.055-0.135-0.078
			c0.006-0.305,0.561-0.754,0.797-0.73c-0.197,0.242-0.436,0.531-0.672,0.813L52.845,16.297"/>
	</g>
	<g>
		<defs>
			<rect id="SVGID_51_" x="-82.49" y="-31.745" width="226.772" height="90.645"/>
		</defs>
		<clipPath id="SVGID_52_">
			<use xlink:href="#SVGID_51_"  overflow="visible"/>
		</clipPath>
		<path clip-path="url(#SVGID_52_)" fill="#48484A" d="M16.107,7.369c0.311-0.264,0.549-0.471,0.799-0.664
			c0.033-0.023,0.133,0.046,0.199,0.072c-0.039,0.048-0.086,0.145-0.107,0.139C16.73,6.841,16.72,7.08,16.642,7.209
			C16.511,7.418,16.523,7.426,16.107,7.369"/>
	</g>
	<g>
		<defs>
			<rect id="SVGID_53_" x="-82.49" y="-31.745" width="226.772" height="90.645"/>
		</defs>
		<clipPath id="SVGID_54_">
			<use xlink:href="#SVGID_53_"  overflow="visible"/>
		</clipPath>
		<path clip-path="url(#SVGID_54_)" fill="#48484A" d="M55.673,13.863c0.18-0.223,0.359-0.448,0.559-0.697
			c0.109,0.222-0.131,0.572-0.459,0.771C55.741,13.914,55.71,13.887,55.673,13.863"/>
	</g>
	<g>
		<defs>
			<rect id="SVGID_55_" x="-82.49" y="-31.745" width="226.772" height="90.645"/>
		</defs>
		<clipPath id="SVGID_56_">
			<use xlink:href="#SVGID_55_"  overflow="visible"/>
		</clipPath>
		<path clip-path="url(#SVGID_56_)" fill="#48484A" d="M19.128,9.578c-0.115,0.367-0.377,0.504-0.773,0.4
			C18.621,9.838,18.851,9.719,19.128,9.578"/>
	</g>
	<g>
		<defs>
			<rect id="SVGID_57_" x="-82.49" y="-31.745" width="226.772" height="90.645"/>
		</defs>
		<clipPath id="SVGID_58_">
			<use xlink:href="#SVGID_57_"  overflow="visible"/>
		</clipPath>
		<path clip-path="url(#SVGID_58_)" fill="#48484A" d="M18.298,7.591c-0.182-0.107-0.361-0.208-0.578-0.336
			c0.104-0.051,0.283-0.173,0.314-0.145c0.131,0.125,0.215,0.297,0.32,0.45C18.335,7.572,18.318,7.583,18.298,7.591"/>
	</g>
	<g>
		<defs>
			<rect id="SVGID_59_" x="-82.49" y="-31.745" width="226.772" height="90.645"/>
		</defs>
		<clipPath id="SVGID_60_">
			<use xlink:href="#SVGID_59_"  overflow="visible"/>
		</clipPath>
		<path clip-path="url(#SVGID_60_)" fill="#48484A" d="M56.411,13.111c-0.012-0.098-0.021-0.197-0.031-0.298
			c0.129-0.059,0.244-0.109,0.355-0.16c0.031,0.025,0.059,0.048,0.084,0.072c-0.094,0.149-0.193,0.297-0.289,0.445
			C56.491,13.148,56.45,13.133,56.411,13.111"/>
	</g>
	<g>
		<defs>
			<rect id="SVGID_61_" x="-82.49" y="-31.745" width="226.772" height="90.645"/>
		</defs>
		<clipPath id="SVGID_62_">
			<use xlink:href="#SVGID_61_"  overflow="visible"/>
		</clipPath>
		<path clip-path="url(#SVGID_62_)" fill="#48484A" d="M17.394,6.626c-0.104-0.051-0.207-0.099-0.391-0.191
			c0.111-0.09,0.191-0.157,0.271-0.221c0.076,0.109,0.158,0.219,0.234,0.33C17.468,6.57,17.433,6.596,17.394,6.626"/>
	</g>
	<g>
		<defs>
			<rect id="SVGID_63_" x="-82.49" y="-31.745" width="226.772" height="90.645"/>
		</defs>
		<clipPath id="SVGID_64_">
			<use xlink:href="#SVGID_63_"  overflow="visible"/>
		</clipPath>
		<path clip-path="url(#SVGID_64_)" fill="#48484A" d="M21.642-5.297c-0.068,0.142-0.125,0.293-0.213,0.425
			c-0.023,0.034-0.141,0.008-0.215,0.008c0.01-0.073-0.006-0.173,0.035-0.216c0.094-0.096,0.217-0.168,0.326-0.245
			C21.601-5.315,21.621-5.305,21.642-5.297"/>
	</g>
	<g>
		<defs>
			<rect id="SVGID_65_" x="-82.49" y="-31.745" width="226.772" height="90.645"/>
		</defs>
		<clipPath id="SVGID_66_">
			<use xlink:href="#SVGID_65_"  overflow="visible"/>
		</clipPath>
		<path clip-path="url(#SVGID_66_)" fill="#48484A" d="M-24.72,16.543c0.041,0.176,0.08,0.359,0.117,0.531
			c0.27-0.063,0.501-0.117,0.794-0.18c-0.311,0.367-0.611,0.445-0.893,0.309c-0.187,0.16-0.4,0.453-0.533,0.422
			c-0.289-0.066-0.341,0.074-0.435,0.246c-0.035,0.059-0.066,0.125-0.112,0.207c-0.322-0.563-0.662-0.73-0.814-0.547
			c0.164,0.152,0.316,0.297,0.486,0.457c-0.133,0.035-0.256,0.059-0.381,0.09c0.004-0.031,0.012-0.059,0.018-0.09
			c-0.125-0.047-0.252-0.141-0.375-0.133c-0.232,0.008-0.24-0.141-0.205-0.273c0.059-0.219,0.16-0.422,0.244-0.633
			c0.401,0.203,0.745,0.078,0.967-0.344c0.084,0.031,0.17,0.063,0.254,0.094c0.076,0.031,0.145,0.063,0.292,0.133
			c-0.328,0.133-0.59,0.242-0.852,0.344c0.004,0.031,0.01,0.063,0.02,0.098c0.391-0.043,0.786-0.086,1.231-0.133
			c-0.2-0.344-0.004-0.469,0.184-0.594L-24.72,16.543"/>
	</g>
	<g>
		<defs>
			<rect id="SVGID_67_" x="-82.49" y="-31.745" width="226.772" height="90.645"/>
		</defs>
		<clipPath id="SVGID_68_">
			<use xlink:href="#SVGID_67_"  overflow="visible"/>
		</clipPath>
		<path clip-path="url(#SVGID_68_)" fill="#48484A" d="M-28.501-17.971c0.486-0.338,0.314-0.635,0.736-0.928
			C-27.74-18.526-27.992-17.875-28.501-17.971"/>
	</g>
	<g>
		<defs>
			<rect id="SVGID_69_" x="-82.49" y="-31.745" width="226.772" height="90.645"/>
		</defs>
		<clipPath id="SVGID_70_">
			<use xlink:href="#SVGID_69_"  overflow="visible"/>
		</clipPath>
		<path clip-path="url(#SVGID_70_)" fill="#48484A" d="M-20.066,15.332c-0.277,0-0.537,0.008-0.806,0.008
			c-0.04-0.293,0.145-0.406,0.384-0.43C-20.208,14.887-20.052,15.035-20.066,15.332"/>
	</g>
	<g>
		<defs>
			<rect id="SVGID_71_" x="-82.49" y="-31.745" width="226.772" height="90.645"/>
		</defs>
		<clipPath id="SVGID_72_">
			<use xlink:href="#SVGID_71_"  overflow="visible"/>
		</clipPath>
		<path clip-path="url(#SVGID_72_)" fill="#48484A" d="M-33.669-3.62c-0.03,0.025-0.096,0.081-0.206,0.173
			c-0.15-0.359-0.279-0.68-0.412-1c0.039-0.016,0.074-0.034,0.111-0.051C-34.015-4.223-33.861-3.95-33.669-3.62"/>
	</g>
	<g>
		<defs>
			<rect id="SVGID_73_" x="-82.49" y="-31.745" width="226.772" height="90.645"/>
		</defs>
		<clipPath id="SVGID_74_">
			<use xlink:href="#SVGID_73_"  overflow="visible"/>
		</clipPath>
		<path clip-path="url(#SVGID_74_)" fill="#48484A" d="M-30.474-16.075c0.04,0.168,0.04,0.766-0.555,0.944
			C-30.826-15.256-30.626-15.981-30.474-16.075"/>
	</g>
	<g>
		<defs>
			<rect id="SVGID_75_" x="-82.49" y="-31.745" width="226.772" height="90.645"/>
		</defs>
		<clipPath id="SVGID_76_">
			<use xlink:href="#SVGID_75_"  overflow="visible"/>
		</clipPath>
		<path clip-path="url(#SVGID_76_)" fill="#48484A" d="M-19.681,17.258c0.242-0.148,0.42-0.258,0.598-0.367
			C-19.087,16.984-19.236,17.168-19.681,17.258"/>
	</g>
	<g>
		<defs>
			<rect id="SVGID_77_" x="-82.49" y="-31.745" width="226.772" height="90.645"/>
		</defs>
		<clipPath id="SVGID_78_">
			<use xlink:href="#SVGID_77_"  overflow="visible"/>
		</clipPath>
		<path clip-path="url(#SVGID_78_)" fill="#48484A" d="M-30.882-6.612c-0.127,0.014-0.256,0.025-0.381,0.035
			c-0.019-0.025-0.041-0.048-0.062-0.072c0.138-0.131,0.275-0.259,0.464-0.44c-0.014,0.216-0.021,0.352-0.031,0.491L-30.882-6.612"
			/>
	</g>
	<g>
		<defs>
			<rect id="SVGID_79_" x="-82.49" y="-31.745" width="226.772" height="90.645"/>
		</defs>
		<clipPath id="SVGID_80_">
			<use xlink:href="#SVGID_79_"  overflow="visible"/>
		</clipPath>
	</g>
	<g>
		<defs>
			<rect id="SVGID_81_" x="-82.49" y="-31.745" width="226.772" height="90.645"/>
		</defs>
		<clipPath id="SVGID_82_">
			<use xlink:href="#SVGID_81_"  overflow="visible"/>
		</clipPath>
	</g>
	<g>
		<defs>
			<rect id="SVGID_83_" x="-82.49" y="-31.745" width="226.772" height="90.645"/>
		</defs>
		<clipPath id="SVGID_84_">
			<use xlink:href="#SVGID_83_"  overflow="visible"/>
		</clipPath>
	</g>
	<g>
		<defs>
			<rect id="SVGID_85_" x="-82.49" y="-31.745" width="226.772" height="90.645"/>
		</defs>
		<clipPath id="SVGID_86_">
			<use xlink:href="#SVGID_85_"  overflow="visible"/>
		</clipPath>
	</g>
	<g>
		<defs>
			<rect id="SVGID_87_" x="-82.49" y="-31.745" width="226.772" height="90.645"/>
		</defs>
		<clipPath id="SVGID_88_">
			<use xlink:href="#SVGID_87_"  overflow="visible"/>
		</clipPath>
	</g>
	<g>
		<defs>
			<rect id="SVGID_89_" x="-82.49" y="-31.745" width="226.772" height="90.645"/>
		</defs>
		<clipPath id="SVGID_90_">
			<use xlink:href="#SVGID_89_"  overflow="visible"/>
		</clipPath>
	</g>
	<g>
		<defs>
			<rect id="SVGID_91_" x="-82.49" y="-31.745" width="226.772" height="90.645"/>
		</defs>
		<clipPath id="SVGID_92_">
			<use xlink:href="#SVGID_91_"  overflow="visible"/>
		</clipPath>
	</g>
	<g>
		<defs>
			<rect id="SVGID_93_" x="-82.49" y="-31.745" width="226.772" height="90.645"/>
		</defs>
		<clipPath id="SVGID_94_">
			<use xlink:href="#SVGID_93_"  overflow="visible"/>
		</clipPath>
	</g>
	<g>
		<defs>
			<rect id="SVGID_95_" x="-82.49" y="-31.745" width="226.772" height="90.645"/>
		</defs>
		<clipPath id="SVGID_96_">
			<use xlink:href="#SVGID_95_"  overflow="visible"/>
		</clipPath>
	</g>
	<g>
		<defs>
			<rect id="SVGID_97_" x="-82.49" y="-31.745" width="226.772" height="90.645"/>
		</defs>
		<clipPath id="SVGID_98_">
			<use xlink:href="#SVGID_97_"  overflow="visible"/>
		</clipPath>
	</g>
	<g>
		<defs>
			<rect id="SVGID_99_" x="-82.49" y="-31.745" width="226.772" height="90.645"/>
		</defs>
		<clipPath id="SVGID_100_">
			<use xlink:href="#SVGID_99_"  overflow="visible"/>
		</clipPath>
	</g>
	<g>
		<defs>
			<rect id="SVGID_101_" x="-82.49" y="-31.745" width="226.772" height="90.645"/>
		</defs>
		<clipPath id="SVGID_102_">
			<use xlink:href="#SVGID_101_"  overflow="visible"/>
		</clipPath>
	</g>
	<g>
		<defs>
			<rect id="SVGID_103_" x="-82.49" y="-31.745" width="226.772" height="90.645"/>
		</defs>
		<clipPath id="SVGID_104_">
			<use xlink:href="#SVGID_103_"  overflow="visible"/>
		</clipPath>
	</g>
	<g>
		<defs>
			<rect id="SVGID_105_" x="-82.49" y="-31.745" width="226.772" height="90.645"/>
		</defs>
		<clipPath id="SVGID_106_">
			<use xlink:href="#SVGID_105_"  overflow="visible"/>
		</clipPath>
	</g>
	<g>
		<defs>
			<rect id="SVGID_107_" x="-82.49" y="-31.745" width="226.772" height="90.645"/>
		</defs>
		<clipPath id="SVGID_108_">
			<use xlink:href="#SVGID_107_"  overflow="visible"/>
		</clipPath>
	</g>
	<g>
		<defs>
			<rect id="SVGID_109_" x="-82.49" y="-31.745" width="226.772" height="90.645"/>
		</defs>
		<clipPath id="SVGID_110_">
			<use xlink:href="#SVGID_109_"  overflow="visible"/>
		</clipPath>
	</g>
	<g>
		<defs>
			<rect id="SVGID_111_" x="-82.49" y="-31.745" width="226.772" height="90.645"/>
		</defs>
		<clipPath id="SVGID_112_">
			<use xlink:href="#SVGID_111_"  overflow="visible"/>
		</clipPath>
	</g>
	<g>
		<defs>
			<rect id="SVGID_113_" x="-82.49" y="-31.745" width="226.772" height="90.645"/>
		</defs>
		<clipPath id="SVGID_114_">
			<use xlink:href="#SVGID_113_"  overflow="visible"/>
		</clipPath>
	</g>
	<g>
		<defs>
			<rect id="SVGID_115_" x="-82.49" y="-31.745" width="226.772" height="90.645"/>
		</defs>
		<clipPath id="SVGID_116_">
			<use xlink:href="#SVGID_115_"  overflow="visible"/>
		</clipPath>
	</g>
	<g>
		<defs>
			<rect id="SVGID_117_" x="-82.49" y="-31.745" width="226.772" height="90.645"/>
		</defs>
		<clipPath id="SVGID_118_">
			<use xlink:href="#SVGID_117_"  overflow="visible"/>
		</clipPath>
	</g>
	<g>
		<defs>
			<rect id="SVGID_119_" x="-82.49" y="-31.745" width="226.772" height="90.645"/>
		</defs>
		<clipPath id="SVGID_120_">
			<use xlink:href="#SVGID_119_"  overflow="visible"/>
		</clipPath>
	</g>
	<g>
		<defs>
			<rect id="SVGID_121_" x="-82.49" y="-31.745" width="226.772" height="90.645"/>
		</defs>
		<clipPath id="SVGID_122_">
			<use xlink:href="#SVGID_121_"  overflow="visible"/>
		</clipPath>
	</g>
	<g>
		<defs>
			<rect id="SVGID_123_" x="-82.49" y="-31.745" width="226.772" height="90.645"/>
		</defs>
		<clipPath id="SVGID_124_">
			<use xlink:href="#SVGID_123_"  overflow="visible"/>
		</clipPath>
	</g>
	<g>
		<defs>
			<rect id="SVGID_125_" x="-82.49" y="-31.745" width="226.772" height="90.645"/>
		</defs>
		<clipPath id="SVGID_126_">
			<use xlink:href="#SVGID_125_"  overflow="visible"/>
		</clipPath>
	</g>
	<g>
		<defs>
			<rect id="SVGID_127_" x="-82.49" y="-31.745" width="226.772" height="90.645"/>
		</defs>
		<clipPath id="SVGID_128_">
			<use xlink:href="#SVGID_127_"  overflow="visible"/>
		</clipPath>
	</g>
	<g>
		<defs>
			<rect id="SVGID_129_" x="-82.49" y="-31.745" width="226.772" height="90.645"/>
		</defs>
		<clipPath id="SVGID_130_">
			<use xlink:href="#SVGID_129_"  overflow="visible"/>
		</clipPath>
	</g>
	<g>
		<defs>
			<rect id="SVGID_131_" x="-82.49" y="-31.745" width="226.772" height="90.645"/>
		</defs>
		<clipPath id="SVGID_132_">
			<use xlink:href="#SVGID_131_"  overflow="visible"/>
		</clipPath>
	</g>
	<g>
		<defs>
			<rect id="SVGID_133_" x="-82.49" y="-31.745" width="226.772" height="90.645"/>
		</defs>
		<clipPath id="SVGID_134_">
			<use xlink:href="#SVGID_133_"  overflow="visible"/>
		</clipPath>
	</g>
	<g>
		<defs>
			<rect id="SVGID_135_" x="-82.49" y="-31.745" width="226.772" height="90.645"/>
		</defs>
		<clipPath id="SVGID_136_">
			<use xlink:href="#SVGID_135_"  overflow="visible"/>
		</clipPath>
	</g>
	<g>
		<defs>
			<rect id="SVGID_137_" x="-82.49" y="-31.745" width="226.772" height="90.645"/>
		</defs>
		<clipPath id="SVGID_138_">
			<use xlink:href="#SVGID_137_"  overflow="visible"/>
		</clipPath>
	</g>
	<g>
		<defs>
			<rect id="SVGID_139_" x="-82.49" y="-31.745" width="226.772" height="90.645"/>
		</defs>
		<clipPath id="SVGID_140_">
			<use xlink:href="#SVGID_139_"  overflow="visible"/>
		</clipPath>
	</g>
	<g>
		<defs>
			<rect id="SVGID_141_" x="-82.49" y="-31.745" width="226.772" height="90.645"/>
		</defs>
		<clipPath id="SVGID_142_">
			<use xlink:href="#SVGID_141_"  overflow="visible"/>
		</clipPath>
	</g>
	<g>
		<defs>
			<rect id="SVGID_143_" x="-82.49" y="-31.745" width="226.772" height="90.645"/>
		</defs>
		<clipPath id="SVGID_144_">
			<use xlink:href="#SVGID_143_"  overflow="visible"/>
		</clipPath>
	</g>
	<g>
		<defs>
			<rect id="SVGID_145_" x="-82.49" y="-31.745" width="226.772" height="90.645"/>
		</defs>
		<clipPath id="SVGID_146_">
			<use xlink:href="#SVGID_145_"  overflow="visible"/>
		</clipPath>
	</g>
	<g>
		<defs>
			<rect id="SVGID_147_" x="-82.49" y="-31.745" width="226.772" height="90.645"/>
		</defs>
		<clipPath id="SVGID_148_">
			<use xlink:href="#SVGID_147_"  overflow="visible"/>
		</clipPath>
	</g>
	<g>
		<defs>
			<rect id="SVGID_149_" x="-82.49" y="-31.745" width="226.772" height="90.645"/>
		</defs>
		<clipPath id="SVGID_150_">
			<use xlink:href="#SVGID_149_"  overflow="visible"/>
		</clipPath>
	</g>
	<g>
		<defs>
			<rect id="SVGID_151_" x="-82.49" y="-31.745" width="226.772" height="90.645"/>
		</defs>
		<clipPath id="SVGID_152_">
			<use xlink:href="#SVGID_151_"  overflow="visible"/>
		</clipPath>
	</g>
	<g>
		<defs>
			<rect id="SVGID_153_" x="-82.49" y="-31.745" width="226.772" height="90.645"/>
		</defs>
		<clipPath id="SVGID_154_">
			<use xlink:href="#SVGID_153_"  overflow="visible"/>
		</clipPath>
	</g>
	<g>
		<defs>
			<rect id="SVGID_155_" x="-82.49" y="-31.745" width="226.772" height="90.645"/>
		</defs>
		<clipPath id="SVGID_156_">
			<use xlink:href="#SVGID_155_"  overflow="visible"/>
		</clipPath>
	</g>
	<g>
		<defs>
			<rect id="SVGID_157_" x="-82.49" y="-31.745" width="226.772" height="90.645"/>
		</defs>
		<clipPath id="SVGID_158_">
			<use xlink:href="#SVGID_157_"  overflow="visible"/>
		</clipPath>
	</g>
	<g>
		<defs>
			<rect id="SVGID_159_" x="-82.49" y="-31.745" width="226.772" height="90.645"/>
		</defs>
		<clipPath id="SVGID_160_">
			<use xlink:href="#SVGID_159_"  overflow="visible"/>
		</clipPath>
	</g>
	<g>
		<defs>
			<rect id="SVGID_161_" x="-82.49" y="-31.745" width="226.772" height="90.645"/>
		</defs>
		<clipPath id="SVGID_162_">
			<use xlink:href="#SVGID_161_"  overflow="visible"/>
		</clipPath>
	</g>
	<g>
		<defs>
			<rect id="SVGID_163_" x="-82.49" y="-31.745" width="226.772" height="90.645"/>
		</defs>
		<clipPath id="SVGID_164_">
			<use xlink:href="#SVGID_163_"  overflow="visible"/>
		</clipPath>
	</g>
	<g>
		<defs>
			<rect id="SVGID_165_" x="-82.49" y="-31.745" width="226.772" height="90.645"/>
		</defs>
		<clipPath id="SVGID_166_">
			<use xlink:href="#SVGID_165_"  overflow="visible"/>
		</clipPath>
	</g>
	<g>
		<defs>
			<rect id="SVGID_167_" x="-82.49" y="-31.745" width="226.772" height="90.645"/>
		</defs>
		<clipPath id="SVGID_168_">
			<use xlink:href="#SVGID_167_"  overflow="visible"/>
		</clipPath>
	</g>
	<g>
		<defs>
			<rect id="SVGID_169_" x="-82.49" y="-31.745" width="226.772" height="90.645"/>
		</defs>
		<clipPath id="SVGID_170_">
			<use xlink:href="#SVGID_169_"  overflow="visible"/>
		</clipPath>
	</g>
	<g>
		<defs>
			<rect id="SVGID_171_" x="-82.49" y="-31.745" width="226.772" height="90.645"/>
		</defs>
		<clipPath id="SVGID_172_">
			<use xlink:href="#SVGID_171_"  overflow="visible"/>
		</clipPath>
	</g>
	<g>
		<defs>
			<rect id="SVGID_173_" x="-82.49" y="-31.745" width="226.772" height="90.645"/>
		</defs>
		<clipPath id="SVGID_174_">
			<use xlink:href="#SVGID_173_"  overflow="visible"/>
		</clipPath>
	</g>
	<g>
		<defs>
			<rect id="SVGID_175_" x="-82.49" y="-31.745" width="226.772" height="90.645"/>
		</defs>
		<clipPath id="SVGID_176_">
			<use xlink:href="#SVGID_175_"  overflow="visible"/>
		</clipPath>
	</g>
	<g>
		<defs>
			<rect id="SVGID_177_" x="-82.49" y="-31.745" width="226.772" height="90.645"/>
		</defs>
		<clipPath id="SVGID_178_">
			<use xlink:href="#SVGID_177_"  overflow="visible"/>
		</clipPath>
	</g>
	<g>
		<defs>
			<rect id="SVGID_179_" x="-82.49" y="-31.745" width="226.772" height="90.645"/>
		</defs>
		<clipPath id="SVGID_180_">
			<use xlink:href="#SVGID_179_"  overflow="visible"/>
		</clipPath>
	</g>
	<g>
		<defs>
			<rect id="SVGID_181_" x="-82.49" y="-31.745" width="226.772" height="90.645"/>
		</defs>
		<clipPath id="SVGID_182_">
			<use xlink:href="#SVGID_181_"  overflow="visible"/>
		</clipPath>
	</g>
	<g>
		<defs>
			<rect id="SVGID_183_" x="-82.49" y="-31.745" width="226.772" height="90.645"/>
		</defs>
		<clipPath id="SVGID_184_">
			<use xlink:href="#SVGID_183_"  overflow="visible"/>
		</clipPath>
	</g>
	<g>
		<defs>
			<rect id="SVGID_185_" x="-82.49" y="-31.745" width="226.772" height="90.645"/>
		</defs>
		<clipPath id="SVGID_186_">
			<use xlink:href="#SVGID_185_"  overflow="visible"/>
		</clipPath>
	</g>
	<g>
		<defs>
			<rect id="SVGID_187_" x="-82.49" y="-31.745" width="226.772" height="90.645"/>
		</defs>
		<clipPath id="SVGID_188_">
			<use xlink:href="#SVGID_187_"  overflow="visible"/>
		</clipPath>
	</g>
	<g>
		<defs>
			<rect id="SVGID_189_" x="-82.49" y="-31.745" width="226.772" height="90.645"/>
		</defs>
		<clipPath id="SVGID_190_">
			<use xlink:href="#SVGID_189_"  overflow="visible"/>
		</clipPath>
	</g>
	<g>
		<defs>
			<rect id="SVGID_191_" x="-82.49" y="-31.745" width="226.772" height="90.645"/>
		</defs>
		<clipPath id="SVGID_192_">
			<use xlink:href="#SVGID_191_"  overflow="visible"/>
		</clipPath>
	</g>
	<g>
		<defs>
			<rect id="SVGID_193_" x="-82.49" y="-31.745" width="226.772" height="90.645"/>
		</defs>
		<clipPath id="SVGID_194_">
			<use xlink:href="#SVGID_193_"  overflow="visible"/>
		</clipPath>
	</g>
	<g>
		<defs>
			<rect id="SVGID_195_" x="-82.49" y="-31.745" width="226.772" height="90.645"/>
		</defs>
		<clipPath id="SVGID_196_">
			<use xlink:href="#SVGID_195_"  overflow="visible"/>
		</clipPath>
	</g>
	<g>
		<defs>
			<rect id="SVGID_197_" x="-82.49" y="-31.745" width="226.772" height="90.645"/>
		</defs>
		<clipPath id="SVGID_198_">
			<use xlink:href="#SVGID_197_"  overflow="visible"/>
		</clipPath>
	</g>
	<g>
		<defs>
			<rect id="SVGID_199_" x="-82.49" y="-31.745" width="226.772" height="90.645"/>
		</defs>
		<clipPath id="SVGID_200_">
			<use xlink:href="#SVGID_199_"  overflow="visible"/>
		</clipPath>
	</g>
	<g>
		<defs>
			<rect id="SVGID_201_" x="-82.49" y="-31.745" width="226.772" height="90.645"/>
		</defs>
		<clipPath id="SVGID_202_">
			<use xlink:href="#SVGID_201_"  overflow="visible"/>
		</clipPath>
	</g>
	<g>
		<defs>
			<rect id="SVGID_203_" x="-82.49" y="-31.745" width="226.772" height="90.645"/>
		</defs>
		<clipPath id="SVGID_204_">
			<use xlink:href="#SVGID_203_"  overflow="visible"/>
		</clipPath>
	</g>
	<g>
		<defs>
			<rect id="SVGID_205_" x="-82.49" y="-31.745" width="226.772" height="90.645"/>
		</defs>
		<clipPath id="SVGID_206_">
			<use xlink:href="#SVGID_205_"  overflow="visible"/>
		</clipPath>
	</g>
	<g>
		<defs>
			<rect id="SVGID_207_" x="-82.49" y="-31.745" width="226.772" height="90.645"/>
		</defs>
		<clipPath id="SVGID_208_">
			<use xlink:href="#SVGID_207_"  overflow="visible"/>
		</clipPath>
	</g>
	<g>
		<defs>
			<rect id="SVGID_209_" x="-82.49" y="-31.745" width="226.772" height="90.645"/>
		</defs>
		<clipPath id="SVGID_210_">
			<use xlink:href="#SVGID_209_"  overflow="visible"/>
		</clipPath>
	</g>
</g>
</svg>
